<?xml version="1.0" standalone="no"?>
<!DOCTYPE svg PUBLIC "-//W3C//DTD SVG 1.1//EN" "http://www.w3.org/Graphics/SVG/1.1/DTD/svg11.dtd" >
<svg xmlns="http://www.w3.org/2000/svg" xmlns:xlink="http://www.w3.org/1999/xlink" version="1.1">
<metadata>
Created by FontForge 20170731 at Thu Apr 19 16:51:16 2018
 By Aleksey,,,
Copyright (c) 2018 by Motokiwo. All rights reserved.
</metadata>
<defs>
<font id="BeatrixSignature" horiz-adv-x="188" >
  <font-face 
    font-family="Beatrix Signature"
    font-weight="400"
    font-stretch="normal"
    units-per-em="1000"
    panose-1="3 0 5 8 0 0 0 2 0 2"
    ascent="750"
    descent="-250"
    x-height="292"
    cap-height="538"
    bbox="-276.167 -250 1009 750.571"
    underline-thickness="10"
    underline-position="180"
    unicode-range="U+000D-2212"
  />
<missing-glyph horiz-adv-x="571" 
d="M533 -38q-10 4 -14 7q-209 -5 -411 -57q0 -2 -0.5 -6t-0.5 -6l-12 1q0 2 0.5 4.5t0.5 3.5q-13 -3 -29 -8l-3 12l33 9q4 29 10 97q-24 -34 -44 -65l-10 6q17 28 55 82q6 90 6 181q0 131 -14 273l-50 66l5 3q-27 -6 -51 -15l-4 11q42 15 90 24q0 2 -1 6.5t-1 6.5l12 2
q0 -4 2 -14q42 7 98 7q35 0 108.5 -9t109.5 -9q0 3 -0.5 8t-0.5 7l12 1v-3l7 -1q-2 -10 -3 -14q77 -10 118 -13l-1 -12q-42 3 -119 13q22 -233 36 -477l-12 -1q-11 211 -32 443q-34 -119 -131 -259l187 -241q2 -3 8.5 -11.5t10.5 -13t10.5 -10.5t13.5 -10h38v-12h-25z
M275 578q-41 3 -77 3q-50 0 -95 -6q2 -15 5.5 -42.5t3.5 -31.5l173 -224q107 157 134 285q-3 1 -8 1q-85 12 -136 15zM61 567l37 -48q-4 36 -7 54zM114 478q13 -140 13 -257q0 -73 -5 -161q23 32 73.5 97.5t76.5 101.5q4 3 5 8zM110 -75q190 49 393 55q-15 13 -34 38
l-184 239q-2 -4 -3 -5q-29 -41 -84.5 -112.5t-77.5 -101.5q-6 -72 -10 -113z" />
    <glyph glyph-name="t_t" unicode="tt" horiz-adv-x="192" 
d="M154 426q5 0 5 -5t-5 -5q-54 5 -141 0q1 -32 1.5 -74.5t0.5 -86t-0.5 -88t-1 -83t-1 -69t-0.5 -49.5l-1 -18q0 -4 -6 -4q-7 0 -7 6v12q0 11 0.5 30.5t1 45.5t0.5 56.5t0.5 64t0.5 68.5t-0.5 67.5t-1 64t-1.5 56.5l-64 -6q-5 0 -5 7q0 5 4 5q51 5 65 6q0 23 -3 41q0 5 7 5
q5 2 7 -4q1 -18 3 -42q65 4 142 -1zM246 360q5 0 5 -5t-5 -5q-54 5 -141 0q3 -84 2.5 -177.5t-1.5 -167t-2 -75.5q0 -5 -6 -5t-6 7v10q0 10 0.5 26t0.5 38.5v49.5v56v60.5t-0.5 61.5l-1 60t-1.5 55l-64 -6q-5 0 -5 7q0 5 4 5q51 5 65 6q0 23 -3 41q0 5 7 5q5 2 7 -4
q1 -18 3 -42q65 4 142 -1z" />
    <glyph glyph-name="f_t" unicode="ft" horiz-adv-x="199" 
d="M288 360q5 0 5 -5t-5 -5q-54 5 -141 0q3 -84 2.5 -177.5t-1.5 -167t-2 -75.5q0 -5 -6 -5t-6 7v8v21.5t0.5 32t0.5 41v47v52v54.5t-0.5 55t-0.5 53q-13 -39 -42 -72t-50.5 -50.5t-19.5 -24.5q25 -54 28 -97q3 -37 -13 -56q-5 -7 -18 -13q-12 -4 -14 5q-14 82 -5 266
q3 62 9 113q9 87 35 176t64 125q12 10 20 2q12 -10 1 -69q-12 -55 -34 -125q-44 -141 -81 -224q-10 -147 3 -253q0 -7 12 4q1 2 2 3q12 9 8.5 48t-26.5 90q-2 15 -0.5 17.5t11.5 10.5q11 8 23.5 19t34.5 34t36 53.5t14 60.5v10l-64 -6q-5 0 -5 7q0 5 4 5q51 5 65 6
q0 23 -3 41q0 5 7 5q5 2 7 -4q1 -18 3 -42q65 4 142 -1zM24 364q-6 -48 -8 -81q33 82 69 196q54 171 37 183q-2 2 -7 -2q-61 -61 -91 -296z" />
    <glyph glyph-name="f_h" unicode="fh" horiz-adv-x="269" 
d="M278 265q5 -2 3 -7q-28 -60 -55 -99q-7 -12 -18 -10q-9 2 -14 9q-4 8 -4 22q0 16 -3 20q-7 7 -14 0l-5 -5q-8 -13 -13 -51q-1 -6 -4 -32t-3 -28q-2 -4 -5 -4q-7 0 -7 4q-2 7 -5 136q-11 -16 -26.5 -28t-30 -17.5t-27.5 -9.5t-19.5 -7.5t-5.5 -8.5q25 -54 28 -97
q3 -37 -13 -56q-5 -7 -18 -13q-12 -4 -14 5q-14 82 -5 266q3 62 9 113q9 87 35 176t64 125q12 10 20 2q12 -10 1 -69q-12 -55 -34 -125q-44 -141 -81 -224q-10 -147 3 -253q0 -7 12 4q1 2 2 3q12 9 8.5 48t-26.5 90q-4 13 -1 17t15 8q2 1 21 7t31 11.5t28 19t23 31.5v9
q-2 68 0 204q3 225 42 247q7 5 15 0q23 -15 22 -90q-3 -64 -19 -152q-17 -93 -44 -203v0q-1 -3 -1 -6q0 -18 0.5 -49t0.5 -44q8 42 20 53q13 14 28 3q9 -8 9 -24q0 -12 1 -19q2 -7 7 -7q3 -2 7 4q12 17 25.5 41.5t20.5 40.5l8 16q2 5 6 3zM24 364q-6 -48 -8 -81
q33 82 69 196q54 171 37 183q-2 2 -7 -2q-61 -61 -91 -296zM145 453q-1 -54 -1 -166q22 86 36 171q38 209 2 231q-1 1 -3 1t-2 -1q-14 -8 -22 -76q-7 -53 -10 -160z" />
    <glyph glyph-name="f_j" unicode="fj" horiz-adv-x="162" 
d="M171 264q4 -2 2 -7l-6 -15q-6 -14 -19 -45t-25 -62q-2 -132 -14 -195q-13 -69 -42.5 -124t-56.5 -55h-1q-6 0 -9 5q-10 17 14 98q23 73 58 167q19 52 38 98q2 79 0 156q-19 -36 -38.5 -63t-30.5 -36.5t-16.5 -18.5t-2.5 -18q25 -54 28 -97q3 -37 -13 -56q-5 -7 -18 -13
q-12 -4 -14 5q-14 82 -5 266q3 62 9 113q9 87 35 176t64 125q12 10 20 2q12 -10 1 -69q-12 -55 -34 -125q-44 -141 -81 -224q-10 -147 3 -253q0 -7 12 4q1 2 2 3q28 33 -17 135q-10 23 9 42q48 49 86 123v1q0 6 10 6q6 0 6 -4q0 -104 -1 -144q10 24 20.5 49t15.5 36l4 11
q2 5 7 3zM24 364q-6 -48 -8 -81q33 82 69 196q54 171 37 183q-2 2 -7 -2q-61 -61 -91 -296zM97 -58q9 48 13 160q-4 -10 -29 -75q-43 -117 -57 -166q-24 -79 -15 -90h1q21 0 48 52.5t39 118.5zM120 351q12 0 12 -11q0 -12 -12 -12q-11 0 -11 12q0 11 11 11z" />
    <glyph glyph-name="f_k" unicode="fk" horiz-adv-x="237" 
d="M248 265q3 -1 3 -6l-3 -9q-4 -8 -8.5 -18.5t-12 -24.5t-15 -26t-16.5 -22t-17 -14q-31 -15 -64 25q-1 -7 -1 -19q-2 -29 -5.5 -76.5t-4.5 -62.5q0 -5 -5 -5l-3 1q-5 0 -5 5q4 47 9 140q2 27 6 83q-16 -25 -39 -43.5t-35 -27.5t-9 -17q24 -54 27 -96q3 -37 -13 -56
q-5 -7 -18 -13q-12 -4 -14 5q-14 82 -5 266q3 62 9 113q9 87 35 176t64 125q12 10 20 2q12 -10 1 -69q-12 -55 -34 -125q-44 -141 -81 -224q-10 -147 3 -253q0 -7 12 4q1 2 2 3q28 33 -17 135q-7 17 16 36q5 4 17 13t19.5 16t19.5 21.5t22 34.5q21 326 41 401q9 33 25 31
q13 -2 18 -33t2 -70q-10 -133 -74 -337v-12q0 1 2 3q10 10 24 8q13 -4 17 -12q9 -22 -14 -34q-20 -12 -24 -16q-6 -7 3 -18q29 -29 47 -19q14 7 30.5 34t26 49.5t9.5 24.5q2 5 7 3zM24 364q-6 -48 -8 -81q33 82 69 196q54 171 37 183q-2 2 -7 -2q-61 -61 -91 -296zM161 659
q-17 -57 -38 -361q51 171 61 293q3 38 -2 68q-4 25 -9 25q-6 -1 -12 -25zM117 199q2 3 17 13q1 1 4 2.5t4 2.5q15 10 10 21q-2 3 -8 5q-8 2 -15 -5q-7 -8 -12 -30v-9z" />
    <glyph glyph-name="f_x" unicode="fx" horiz-adv-x="240" 
d="M228 315q2 -5 -2 -7q-35 -22 -69 -57q44 -56 62 -124q2 -6 -4 -6q-4 -2 -6 3q-15 61 -59 118q-24 -26 -37 -47q-8 -11 -10 -24t7 -23q4 -4 1 -7q-3 -5 -7 -1q-24 18 0 61q22 33 39 51q-24 29 -63 58q2 -51 -7.5 -85t-22 -44.5t-21 -18t-6.5 -14.5q24 -54 27 -96
q3 -37 -13 -56q-5 -7 -18 -13q-12 -4 -14 5q-14 82 -5 266q3 62 9 113q9 87 35 176t64 125q12 10 20 2q12 -10 1 -69q-12 -55 -34 -125q-44 -141 -81 -224q-10 -147 3 -253q0 -7 12 4q1 2 2 3q28 33 -17 135q-5 12 -1 19t17 17q8 6 14.5 14.5t10.5 19.5t6.5 20t4 23.5
t2 21.5t1 23t0.5 20v3v1l1 1q0 2 1 2q1 1 5 2t5 0q37 -26 70 -67q31 33 70 55q3 3 7 -1zM24 364q-6 -48 -8 -81q33 82 69 196q54 171 37 183q-2 2 -7 -2q-61 -61 -91 -296z" />
    <glyph glyph-name="f_z" unicode="fz" horiz-adv-x="266" 
d="M278 264q4 -2 1 -7q-39 -54 -85 -123q2 -12 2 -21q2 -62 -43 -140q-41 -74 -96 -113q-16 -10 -24 -10q-4 0 -7 3q-12 12 27 80q31 56 86 138q6 10 13 20.5t15.5 23t13.5 19.5q-5 26 -30 44q-33 24 -79 5q-4 -2 -6 2t1 7l136 102l-109 -20q-16 -40 -32.5 -66t-25.5 -33
t-13.5 -12.5t-1.5 -13.5q25 -54 28 -97q3 -37 -13 -56q-5 -7 -18 -13q-12 -4 -14 5q-14 82 -5 266q3 62 9 113q9 87 35 176t64 125q12 10 20 2q12 -10 1 -69q-12 -55 -34 -125q-44 -141 -81 -224q-10 -147 3 -253q0 -7 12 4q1 2 2 3q28 33 -17 135q-8 19 12 36
q10 8 19.5 22.5t14.5 24.5t14 30t12 26q2 2 3 2q0 2 2 2l132 24q4 1 6 -3q1 -3 -2 -6l-126 -98q28 6 58 -13q23 -14 32 -41l81 116q4 4 7 1zM23 364q-6 -48 -8 -81q33 82 69 196q54 171 37 183q-2 2 -7 -2q-61 -61 -91 -296zM51 -131q54 36 95.5 114t37.5 137q-6 -8 -35 -52
q-49 -72 -86 -137q-35 -61 -30 -71q5 0 18 9z" />
    <glyph glyph-name="g_j" unicode="gj" horiz-adv-x="186" 
d="M197 264q4 -2 2 -7l-6 -15q-6 -14 -19 -45t-25 -62q-2 -132 -14 -195q-13 -69 -42.5 -124t-56.5 -55h-1q-6 0 -9 5q-10 17 14 98q23 73 58 167q19 52 38 98q2 70 0 149q-35 -70 -58 -122q0 -83 -9 -161q-9 -83 -43 -143q-26 -48 -55 -57q-15 -2 -21 6q-14 16 11 94
q21 63 59 155q20 46 45 102q0 45 -7 122q-8 -19 -29 -34q-22 -15 -29 7q-7 27 10 46q19 20 44 13q0 2 -0.5 6.5t-0.5 7.5q-1 3 6 5q9 0 9 -4q7 -63 9 -143q12 25 33.5 70.5t24.5 51.5v7q0 6 10 6q6 0 6 -4q0 -104 -1 -144q10 24 20.5 49t15.5 36l4 11q2 5 7 3zM24 249
q27 17 30 47q-2 0 -5 0.5t-4 0.5q-11 0 -22 -9q-14 -16 -9 -34q3 -10 10 -5zM56 -1q8 66 9 128q-21 -46 -35 -81q-92 -215 -72 -239q0 -5 10 -2q24 6 48 54q30 56 40 140zM123 -58q9 48 13 160q-4 -10 -29 -75q-43 -117 -57 -166q-24 -79 -15 -90h1q21 0 48 52.5t39 118.5z
M146 328q-11 0 -11 12q0 11 11 11q12 0 12 -11q0 -12 -12 -12z" />
    <glyph glyph-name="j_j" unicode="jj" horiz-adv-x="100" 
d="M9 368q-11 0 -11 12q0 11 11 11q12 0 12 -11q0 -12 -12 -12zM110 264q4 -2 2 -7l-6 -15q-6 -14 -19 -45t-25 -62q-4 -136 -14 -195q-13 -69 -42.5 -124t-56.5 -55h-1q-6 0 -9 5q-10 17 14 98q23 73 58 167q19 52 38 98q2 83 0 137q-31 -75 -37 -91q-3 -96 -26 -195
q-38 -151 -87 -159h-1q-6 0 -9 5q-4 2 -0.5 34t14.5 64q7 19 25.5 65t32.5 82q19 52 38 98q0 15 0.5 30t0.5 29v27.5t-0.5 25t-0.5 22v18.5t-0.5 13.5t-0.5 9.5v3q0 6 10 6q5 0 6 -4q0 -104 -1 -144q17 40 35 85v17q0 6 10 6q5 0 6 -4q0 -104 -1 -144q10 24 20.5 49t14.5 36
l5 11q2 5 7 3zM-26 -17q18 81 25 159q-4 -10 -29 -75q-12 -33 -31 -79t-26 -67q-6 -18 -10.5 -39.5t-5.5 -35t0 -15.5h1h1q17 0 39.5 46t35.5 106zM36 -58q9 48 13 160q-4 -10 -29 -75q-43 -117 -57 -166q-23 -76 -16 -90h1h1q21 0 48 52.5t39 118.5zM59 328q-11 0 -11 12
q0 11 11 11q12 0 12 -11q0 -12 -12 -12z" />
    <glyph glyph-name="y_y" unicode="yy" horiz-adv-x="239" 
d="M250 265q4 -4 1 -7q-38 -57 -66 -112q3 -101 -5 -191q-6 -82 -19 -141q-11 -54 -28 -63q-2 -1 -3 -1q-4 0 -9 6q-22 37 -23 94q-2 58 15 127q19 80 60 167q-2 72 -9 124q-21 -45 -39 -48q-10 0 -13 8l-5 20l-26 -84q2 -51 -1 -92q-3 -60 -19 -140q-10 -52 -28 -64h-4
q-5 0 -9 5v1q-16 21 -2.5 105t51.5 188q-2 77 -10 126q-19 -45 -38 -48q-10 0 -14 8q-7 17 -7 86q0 6 8 6q6 0 6 -5q0 -68 5 -82l2 -1q6 0 17 16t19 41q1 3 5 3q7 0 7 -1q10 -54 11 -125q5 16 13.5 45t11.5 41q-1 18 -1 37q0 6 8 6q7 0 7 -5q0 -70 5 -82l2 -1q5 0 16 16.5
t19 40.5q1 3 5 3q8 0 8 -1q8 -43 11 -125q25 48 58 98q3 3 7 1zM66 75q3 46 3 63q-67 -214 -40 -259q0 -1 1 -1q9 9 18 58q14 63 18 139zM167 -43q7 80 7 164q-36 -80 -51 -146q-35 -146 6 -213l1 -1q8 4 19 58q12 63 18 138z" />
    <glyph glyph-name="l_l" unicode="ll" horiz-adv-x="292" 
d="M302 265q4 -4 2 -7l-5 -8q-5 -9 -12 -20t-17 -24.5t-20 -25t-22 -20.5t-22 -12q-16 -4 -26 6q-22 17 -30 70q-2 10 -2 18q-52 -85 -88 -94q-16 -4 -27 6q-23 18 -30 70q-11 87 17 223q26 128 59 165q14 17 26 10q10 -5 11 -29.5t-3 -51.5t-11 -53q-11 -41 -40.5 -120.5
t-47.5 -109.5h-1q1 -12 3 -32q8 -50 28 -63q5 -4 15 -2q37 9 87 101q0 56 9.5 143t20.5 142q27 127 59 165q14 17 27 10q21 -11 1 -136q-9 -59 -45 -171t-58 -153q1 -26 3 -36q6 -48 27 -63q6 -4 16 -2q8 2 17 8.5t17 16t16.5 19.5t15 20.5t12 18.5t8.5 14l3 5q2 4 7 2z
M189 544q-9 -46 -19 -135.5t-10 -124.5q13 25 48 137t44 165q23 121 5 127q0 1 -1 1q-4 0 -11 -9q-29 -35 -56 -161zM33 444q-20 -94 -20 -166q18 37 43.5 106.5t35.5 106.5q6 21 12 64.5t-3 57.5l-1 1q-4 0 -11 -9q-29 -32 -56 -161z" />
    <glyph glyph-name="s_s" unicode="ss" horiz-adv-x="210" 
d="M216 264q2 -2 2 -4t-2 -3q-53 -53 -74 -82q15 -48 1 -81q-6 -16 -22 -18h-2q-15 0 -21 16q-3 10 1 25q2 8 8.5 21.5t12.5 23.5l6 9q-1 5 -11 37.5t-13 50.5q0 1 -0.5 2.5t-0.5 3.5q-36 -69 -59 -100q15 -48 1 -81q-6 -16 -22 -18h-2q-15 0 -21 16q-3 10 1 25
q2 8 8.5 21.5t12.5 23.5l6 9q-1 5 -11 33t-13 44q-9 43 15 51q2 1 5.5 0.5t4.5 -2.5q0 -4 -4 -7q-15 -11 -6 -43q10 -38 21 -60q12 16 26 39.5t27.5 49t13.5 26.5q11 34 47 42q5 0 6 -4q0 -5 -4 -6q-20 -5 -31.5 -22t-7.5 -39q9 -48 23 -76q19 25 71 77q3 4 7 0zM31 88
q9 22 -1 61q-17 -27 -21 -44q-4 -12 -1 -20q4 -10 12 -9q8 0 11 12zM131 98q9 22 -1 61q-17 -27 -21 -44q-4 -12 -1 -20q4 -10 12 -9q8 0 11 12z" />
    <glyph glyph-name=".notdef" horiz-adv-x="571" 
d="M533 -38q-10 4 -14 7q-209 -5 -411 -57q0 -2 -0.5 -6t-0.5 -6l-12 1q0 2 0.5 4.5t0.5 3.5q-13 -3 -29 -8l-3 12l33 9q4 29 10 97q-24 -34 -44 -65l-10 6q17 28 55 82q6 90 6 181q0 131 -14 273l-50 66l5 3q-27 -6 -51 -15l-4 11q42 15 90 24q0 2 -1 6.5t-1 6.5l12 2
q0 -4 2 -14q42 7 98 7q35 0 108.5 -9t109.5 -9q0 3 -0.5 8t-0.5 7l12 1v-3l7 -1q-2 -10 -3 -14q77 -10 118 -13l-1 -12q-42 3 -119 13q22 -233 36 -477l-12 -1q-11 211 -32 443q-34 -119 -131 -259l187 -241q2 -3 8.5 -11.5t10.5 -13t10.5 -10.5t13.5 -10h38v-12h-25z
M275 578q-41 3 -77 3q-50 0 -95 -6q2 -15 5.5 -42.5t3.5 -31.5l173 -224q107 157 134 285q-3 1 -8 1q-85 12 -136 15zM61 567l37 -48q-4 36 -7 54zM114 478q13 -140 13 -257q0 -73 -5 -161q23 32 73.5 97.5t76.5 101.5q4 3 5 8zM110 -75q190 49 393 55q-15 13 -34 38
l-184 239q-2 -4 -3 -5q-29 -41 -84.5 -112.5t-77.5 -101.5q-6 -72 -10 -113z" />
    <glyph glyph-name=".null" horiz-adv-x="0" 
 />
    <glyph glyph-name="nonmarkingreturn" horiz-adv-x="333" 
 />
    <glyph glyph-name="NULL" horiz-adv-x="0" 
 />
    <glyph glyph-name="NULL" horiz-adv-x="0" 
 />
    <glyph glyph-name="CR" unicode="&#xd;" horiz-adv-x="1110" 
d="M316 584q-40 5 -80 11q131 123 314 123q118 0 219 -54.5t164 -148.5q-15 1 -36 3q-7 0 -127 11q1 6 1.5 13.5t1 12.5t1 11t1 10l1 8t0 6.5t-0.5 4.5t-1 3t-2 1q-10 0 -35 -13t-25 -31v-19q-136 15 -338 41q7 22 7 23q1 6 -2 9q-29 22 -39 15q-10 -8 -24 -40zM915 41
q-23 62 -20.5 125t9.5 124.5t3 69.5q-5 9 -10 12q52 11 79.5 -69.5t11 -168t-72.5 -93.5zM687 341q0 -37 -17.5 -72.5t-43.5 -39.5q3 12 19.5 43t16.5 48q0 15 -23 38q7 36 21 36q10 0 18.5 -16t8.5 -37zM912 1q15 0 30 6q-64 -99 -167.5 -157t-224.5 -58q-190 0 -326 134
q-1 10 -1 32q0 30 6 57t13 31q16 -9 35 -10q36 -2 66.5 29t44.5 90q3 -58 18 -144q5 -33 15 -47.5t29 -15.5v3v5.5t0.5 9t0.5 14v19.5q0 157 -1 171q-1 15 -23.5 20.5t-38.5 2.5q-2 -1 -12.5 -32t-29.5 -61.5t-43 -30.5q-23 0 -51 32q7 14 39.5 38t65.5 42q4 2 0 11.5
t-11 16.5t-12 3q-64 -49 -85 -55q3 23 24 93q4 11 -10.5 25.5t-24.5 7.5q-7 -6 -19 -43t-23 -102.5t-11 -130.5q0 -17 2 -39q-100 125 -100 287q0 166 104 292q49 -2 107 -6q-39 -105 -51 -177q-11 -58 38 -72q13 -4 31 24.5t40.5 77.5t29.5 61q-8 -67 -8 -117
q0 -23 5.5 -34.5t21.5 -19.5q4 -2 9 -3.5t9 -2.5t5 -1q8 -2 24.5 33t34 79t23.5 53q-30 -86 -28 -210q2 -95 22 -163.5t60 -68.5q5 0 15 2q6 2 11.5 12.5t10 27.5t8 31.5t7 32.5t4.5 24v-1q10 -84 54 -175t73 -91q6 0 18.5 5t14.5 10q12 25 5 182q-2 35 -7 108t-8.5 136
t-4.5 116q-1 36 2 75q162 -15 189 -17q41 -73 53 -158q-33 94 -106 84q-28 -4 -40 -27q-18 -3 -29 -15t-14.5 -21.5t-9.5 -31.5q-7 -18 -3.5 -68.5t10.5 -103.5t32.5 -94.5t62.5 -41.5zM419 204q21 1 21 19q0 14 -8 21.5t-21 7.5q-11 1 -19.5 -4.5t-8.5 -16.5q0 -28 36 -27z
M301 328q12 46 60 207q10 -1 354 -34q6 -50 8 -99q21 -301 25 -338q12 -134 10 -151q0 -3 -7 9q-38 72 -63 163q-8 30 -11 53q-3 30 -19 41t-34 9q-7 -1 -16 -28t-19.5 -66t-16.5 -54q-10 16 -20.5 72.5t-10.5 126.5q0 107 26 201q4 13 -5.5 29.5t-21 26t-14.5 6.5
q-50 -50 -91 -159q5 43 5 93q0 19 -10 39t-22 30t-17 6q-6 -5 -22.5 -39t-39 -82.5t-28.5 -61.5zM610 376q-19 0 -30 -23t-11 -54q0 -37 15.5 -63.5t44.5 -26.5t51.5 43t22.5 89q0 29 -11 48.5t-32 19.5q-11 0 -23.5 -10t-17.5 -26q-5 3 -9 3z" />
    <glyph glyph-name="space" unicode=" " horiz-adv-x="128" 
 />
    <glyph glyph-name="exclam" unicode="!" horiz-adv-x="56" 
d="M34 177q-5 0 -5 6l-4 418q0 6 9 6q12 0 12 -6l-6 -418q0 -6 -6 -6zM40 112q7 0 9 -8q0 -9 -9 -9q-14 0 -14 9q0 8 14 8z" />
    <glyph glyph-name="quotedbl" unicode="&#x22;" horiz-adv-x="124" 
d="M48 415h-1q-6 2 -4 7l20 57q2 5 7 3q9 -3 7 -8l-23 -55q-1 -4 -6 -4zM72 413h-2q-6 2 -4 7l20 62q2 5 7 3q3 -1 7 -4t3 -5l-26 -59q-2 -4 -5 -4z" />
    <glyph glyph-name="numbersign" unicode="#" horiz-adv-x="476" 
d="M452 276q5 0 5 -6q-2 -5 -6 -5q-97 11 -185 8q-45 -96 -137 -234q-1 -3 -5 -3h-1q-1 1 -2 1q-4 4 -1 8q71 108 129 227q-47 -1 -107 -8q-33 -67 -86 -158q-2 -3 -5 -3q-2 0 -3 1q-4 2 -2 8q47 80 83 150q-59 -7 -122 -21h-1q-5 0 -6 4q0 6 5 6q69 16 130 23q33 67 60 127
q-95 -13 -188 -47h-2q-3 0 -5 4q-2 5 4 7q96 35 196 47q24 55 51 127q2 6 7 3q3 -1 7.5 -4.5t3.5 -5.5q-9 -23 -27 -63.5t-23 -52.5q32 4 92 4q20 53 32 94q2 5 7 3q2 0 6 -3t3 -4q-22 -68 -30 -90q52 0 93 -5q7 0 5 -6q0 -5 -6 -5q-43 5 -97 5q-23 -61 -52 -123
q71 2 180 -10zM148 276q34 4 106 8q30 65 53 125q-51 0 -94 -5q-3 -7 -65 -128z" />
    <glyph glyph-name="dollar" unicode="$" horiz-adv-x="196" 
d="M137 322q25 -24 30 -52.5t-12.5 -49t-53.5 -21.5l5 -133q0 -2 -3.5 -5t-5.5 -3q-4 0 -6 6l-3 135q-23 2 -55.5 27t-32.5 57q0 5 5 5q4 0 6 -4q12 -59 77 -74l-4 136q-68 40 -63 91q6 60 59 72l-1 42v1q0 4 5 4q6 0 6 -5l1 -42h5q11 0 36 -11.5t25 -28.5q0 -7 -5 -7
q-3 0 -5 4q-16 32 -56 32l4 -141q19 -12 42 -35zM32 437q0 -39 52 -73l-4 133q-19 0 -33.5 -20t-14.5 -40zM100 209h2q39 0 49.5 22.5t-6 53.5t-50.5 55z" />
    <glyph glyph-name="percent" unicode="%" horiz-adv-x="294" 
d="M12 54q-12 0 -12 36q0 24 21 64q111 202 235 392q-41 -30 -73 -37q0 -19 -13.5 -32t-30.5 -13q-13 0 -22 10.5t-9 25.5t16.5 27t32.5 12q18 0 24 -19q41 10 95 56h1q1 1 2 1q6 0 6 -6q0 -2 -1 -3q-98 -147 -248 -422q-21 -40 -21 -60q0 -5 3.5 -12t3.5 -11
q0 -2 -3.5 -5.5t-6.5 -3.5zM131 518q-10 -4 -10 -20q0 -20 21 -20q11 0 20.5 8t9.5 20q-7 -1 -21 -1h-2q-7 0 -10 0.5t-5.5 3.5t-2.5 9zM150 516q14 0 20 1q-3 11 -13 11q-1 0 -3 -0.5t-3 -0.5q4 0 4 -6q0 -5 -5 -5zM142 516h7q-3 0 -7 3v-3zM77 82q-16 -2 -26 9t-10 28
q0 23 12.5 38t26.5 15h3q6 8 17 8q10 0 17 -10t7 -25q0 -21 -14 -40.5t-33 -22.5zM78 161q-21 -5 -21 -37q0 -10 5 -19t13 -9q13 0 23.5 12t13.5 26q-6 -2 -9 -2q-11 0 -18 7t-7 18v4zM89 161v-3q0 -14 14 -14q1 0 5 1t5 1q0 22 -13 22q-4 0 -11 -7z" />
    <glyph glyph-name="ampersand" unicode="&#x26;" horiz-adv-x="233" 
d="M167 85q-10 0 -30 85q-26 -27 -57 -48t-51 -21q-13 0 -21 9t-8 21q0 20 18 47q56 82 88 176q-5 49 -5 151q0 41 28 41q24 0 24 -38q0 -53 -34 -151q10 -88 26 -159q46 55 69 118q2 3 5 3q9 0 9 -7q-25 -70 -79 -130q11 -48 23 -90q0 -7 -5 -7zM110 328q-30 -78 -83 -156
q-16 -23 -16 -41q0 -19 18 -19q20 0 50 23t53 50q-15 70 -22 143zM128 536q-16 0 -16 -31q0 -70 5 -120q25 86 25 124q0 27 -14 27z" />
    <glyph glyph-name="quotesingle" unicode="'" horiz-adv-x="57" 
d="M16 413h-1q-6 2 -4 7l18 47q2 5 7 3l3 -1q3 -1 4.5 -2.5t1.5 -2.5l-23 -48q-2 -3 -6 -3z" />
    <glyph glyph-name="parenleft" unicode="(" horiz-adv-x="127" 
d="M109 9q-3 0 -5 2q-39 44 -65.5 110t-36.5 140t9.5 152t70.5 137q4 4 8 0q7 -7 5 -9q-88 -108 -83 -254t101 -270q4 -4 -1 -7q-1 -1 -3 -1z" />
    <glyph glyph-name="parenright" unicode=")" horiz-adv-x="125" 
d="M5 -1q-2 0 -3 1q-5 3 -1 7q89 137 93 263.5t-76 269.5q-1 3 7 11q5 1 8 -2q81 -152 74.5 -280.5t-97.5 -267.5q-2 -2 -5 -2z" />
    <glyph glyph-name="asterisk" unicode="*" horiz-adv-x="229" 
d="M218 480q6 0 6 -5q0 -6 -6 -6q-49 0 -107 5q3 -4 18.5 -18.5t26.5 -26t11 -15.5q0 -6 -5 -6q-11 0 -56 52l3 -64q0 -6 -5 -6q-9 0 -9 4l-3 79q0 1 -16.5 -8t-38.5 -22t-29 -16q-8 0 -8 6q0 2 14 11t32.5 20t24.5 15q-70 8 -70 16q0 7 7 7q16 -4 72 -13q-14 15 -61 77
q-2 2 -2 4q0 5 6 5q4 0 17.5 -16.5t29.5 -37.5t21 -26v1v3.5v5.5v9.5t-0.5 13.5t-0.5 19v25q0 6 5 6q6 0 6 -5l3 -68q42 38 47 38q2 0 5.5 -4.5t3.5 -6.5q-16 -23 -52 -45q66 -7 110 -7z" />
    <glyph glyph-name="plus" unicode="+" horiz-adv-x="286" 
d="M266 317q5 0 5 -6q-2 -5 -6 -5q-32 4 -123 2l-15 -183q-2 -5 -6 -5q-7 0 -5 6l10 181q-5 -1 -25 -2t-42.5 -4t-41.5 -9q-1 -1 -2 -1q-3 0 -5 4q-2 7 7 10q26 8 65.5 12t44.5 5l9 148q0 6 6 6q11 -4 11 -6l-10 -147q53 2 123 -6z" />
    <glyph glyph-name="comma" unicode="," horiz-adv-x="45" 
d="M5 155q-3 0 -5 3q-2 5 3 8q9 3 11 16q1 8 -9 16q-3 4 2 9q3 5 7 1q13 -10 11 -28q-3 -18 -17 -24q-1 -1 -3 -1z" />
    <glyph glyph-name="hyphen" unicode="-" horiz-adv-x="302" 
d="M36 228q-5 0 -5 13q0 5 6 5q135 -16 252 -9q6 0 6 -5q0 -3 -2.5 -8.5t-4.5 -5.5q-87 -4 -128.5 -2t-123.5 12z" />
    <glyph glyph-name="period" unicode="." horiz-adv-x="33" 
d="M13 185q-7 0 -7 10t7 10q11 0 13 -10q0 -10 -13 -10z" />
    <glyph glyph-name="slash" unicode="/" horiz-adv-x="258" 
d="M-81 35q-5 0 -5 5q0 2 1 3q37 63 169.5 258t168.5 256q2 2 5 2q5 0 5 -6v-2q-38 -63 -167 -260t-165 -256h-12z" />
    <glyph glyph-name="zero" unicode="0" horiz-adv-x="182" 
d="M70 71q-32 0 -50 42.5t-18.5 103.5t7 122.5t25 104t37.5 42.5q9 0 17 -4.5t8 -11.5q0 -6 -7 -6q-3 0 -9 4.5t-9 4.5q-25 0 -43.5 -96t-8.5 -192t54 -96q41 0 64.5 80.5t23.5 162.5q0 174 -95 174h-9q-6 0 -6 6q0 7 15 7q35 0 58.5 -21.5t33 -56t13 -60t3.5 -49.5
q0 -54 -9 -110t-34 -103.5t-61 -47.5z" />
    <glyph glyph-name="one" unicode="1" horiz-adv-x="89" 
d="M10 50q-2 0 -3 1q-6 2 -4 8q82 230 67 474l-46 -65q-4 -5 -10 -1q-4 4 -1 9l57 80q2 4 7 2q3 0 5 -6q10 -141 -5 -257q-17 -127 -57 -241q-1 -4 -10 -4z" />
    <glyph glyph-name="two" unicode="2" horiz-adv-x="274" 
d="M264 68h-7q-80 35 -155 51q-47 -30 -73 -30q-28 0 -28 20q0 16 12.5 25t28.5 9q20 0 53 -10q72 50 116 131.5t44 166.5q0 94 -53 94q-43 0 -55 -83q-2 -5 -7 -5q-6 0 -6 6q0 28 17 62t53 34q64 -5 64 -107q0 -87 -40.5 -170.5t-108.5 -132.5q148 -35 148 -52q0 -10 -3 -9
zM42 130q-11 0 -19.5 -6t-8.5 -15q0 -7 14 -7q12 0 52 21q-16 7 -38 7z" />
    <glyph glyph-name="three" unicode="3" horiz-adv-x="255" 
d="M0 91q0 10 17 11q96 7 155.5 53.5t59.5 123.5q0 64 -43.5 106.5t-107.5 42.5q-13 0 -35 -6t-34 -6q-6 0 -6 6q0 3 13 9t28 12.5t19 10.5q19 19 19 42q0 17 -11 29t-27 12q-10 0 -19 -9t-9 -21q0 -3 1.5 -6.5t1.5 -5.5q0 -6 -7 -6q-9 0 -9 19q0 18 13.5 30t29.5 12
q20 0 34.5 -16.5t14.5 -37.5q0 -29 -26 -55h11q72 0 120 -47t48 -114q0 -82 -64 -131.5t-169 -62.5q-8 -2 -12 -2q-6 0 -6 7z" />
    <glyph glyph-name="four" unicode="4" horiz-adv-x="214" 
d="M229 569q6 -4 2 -9q-19 -23 -26 -31q-2 -271 -48 -479q0 -4 -12 -4h-1q-7 2 -5 8q31 146 44 289l-175 8q-4 0 -6 5q-1 4 3 7q105 77 187 171v21q0 7 6 7q7 0 7 -7v-6q5 7 15 19q1 2 4.5 2.5t4.5 -1.5zM184 357q7 91 7 157q-85 -97 -156 -150z" />
    <glyph glyph-name="five" unicode="5" horiz-adv-x="280" 
d="M268 522q5 -2 5 -7q0 -6 -7 -6q-62 10 -93 11q-18 1 -91 -5q-8 -38 6.5 -77t36.5 -66.5t41 -63t19 -65.5q0 -38 -43.5 -74t-104.5 -36q-15 0 -34 6.5t-19 18.5q0 7 7 7q4 0 5 -2q13 -17 40 -17q54 0 92.5 30.5t38.5 65.5q0 29 -18 63t-39 60.5t-35.5 66.5t-9.5 81
q-3 -1 -10 -1q-4 0 -6 5q0 6 6 8q11 0 13 9t6 9q7 0 7 -6q0 -2 1 -5t1 -4q53 5 81 5q53 0 104 -11z" />
    <glyph glyph-name="six" unicode="6" horiz-adv-x="197" 
d="M-19 77q-11 0 -11 10q18 49 50 105q-20 31 -24 89q-6 83 50 161t138 116q10 0 10 -6q0 -4 -4 -6q-75 -34 -125.5 -107.5t-50.5 -153.5q0 -44 17 -75q46 80 97 80q27 0 47 -20t20 -48q0 -32 -25 -57t-61 -25q-46 0 -77 36q-5 -8 -16.5 -34.5t-21 -45.5t-13.5 -19zM40 196
q26 -40 72 -40q29 0 49.5 19.5t20.5 46.5q0 23 -16 39t-38 16q-43 0 -88 -81z" />
    <glyph glyph-name="seven" unicode="7" horiz-adv-x="229" 
d="M16 77q-1 0 -2 1q-7 2 -3 8l196 407l-198 10q-6 2 -6 7q0 7 7 7l208 -11q4 0 5 -3t0 -6l-194 -416q-1 -4 -13 -4z" />
    <glyph glyph-name="eight" unicode="8" horiz-adv-x="201" 
d="M108 64q-44 0 -76 36.5t-32 84.5q0 56 60 142q-56 74 -56 122q0 37 24 65.5t57 28.5q35 0 56 -25t21 -63q0 -60 -64 -154l55 -64q44 -52 44 -90q0 -34 -27 -58.5t-62 -24.5zM71 313q-56 -78 -56 -129q0 -43 27 -75t66 -32q29 0 52.5 20.5t23.5 48.5q-1 35 -41 82l-53 61
q-6 -10 -10.5 -14.5t-6 -5.5t-4 0t-3.5 1q-6 0 -6 7v1.5t0.5 1.5t2 2.5t3 4t5.5 7.5t8 11zM86 531q-31 0 -49.5 -26t-18.5 -57q0 -51 68 -132q30 44 44 75t14 66q0 33 -15 53.5t-43 20.5z" />
    <glyph glyph-name="nine" unicode="9" horiz-adv-x="215" 
d="M133 76q-7 0 -14.5 1.5t-13 3t-13.5 6t-11.5 6t-12 8.5t-10.5 8t-11.5 9t-10.5 9q-2 2 -2 5q0 7 7 7q3 0 14 -8.5t24.5 -19.5t20.5 -14q14 -7 30 -7q61 0 61 91q0 139 -33 275q-7 -39 -32.5 -65t-57.5 -26q-27 0 -47.5 23t-20.5 52q0 40 30.5 68t71.5 28q19 0 46.5 -9
t27.5 -23q0 -6 -6 -6q-3 0 -7 4q45 -173 45 -320q0 -51 -20 -78.5t-55 -27.5zM103 523q-36 0 -61.5 -22.5t-25.5 -57.5q0 -27 15.5 -46t38.5 -19q22 0 37.5 11.5t23.5 32.5t12 38.5t7 41.5q0 4 5 6q-22 15 -52 15z" />
    <glyph glyph-name="colon" unicode=":" horiz-adv-x="87" 
d="M57 372q8 0 12 -15q0 -5 -4 -11t-8 -6q-19 0 -19 17q0 15 19 15zM57 239q10 3 16 -12q7 -19 -15 -23q-5 -1 -9.5 2.5t-6.5 7.5l-2 4q-4 19 17 21z" />
    <glyph glyph-name="semicolon" unicode=";" horiz-adv-x="81" 
d="M46 341q-5 0 -8.5 4t-3.5 8q0 5 7 12q20 0 20 -12t-15 -12zM39 201h3q14 6 17 25q2 17 -11 28q-3 3 -7 -1q-6 -8 -4 -10q12 -10 11 -16q-2 -11 -11 -16q-6 -2 -3 -7q2 -3 5 -3z" />
    <glyph glyph-name="less" unicode="&#x3c;" horiz-adv-x="295" 
d="M271 147q-120 26 -268 109q-3 3 -3 6q0 4 3 4q140 54 268 139q1 1 3 1q5 0 5 -6t-2 -8q-109 -73 -259 -132q122 -66 257 -98q5 -2 5 -7q-3 -8 -9 -8z" />
    <glyph glyph-name="equal" unicode="=" horiz-adv-x="247" 
d="M227 297h-1q-49 9 -132 9q-14 0 -44.5 -1t-44.5 -1q-5 0 -5 5q0 11 92 11q36 0 88 -4.5t52 -12.5q0 -6 -5 -6zM83 198q-39 0 -78 3q-5 0 -5 6q0 5 6 5q111 -8 221 6q4 1 6 -5q0 -10 -4 -11q-32 -4 -146 -4z" />
    <glyph glyph-name="greater" unicode="&#x3e;" horiz-adv-x="281" 
d="M0 105q0 3 3 4l249 150l-242 111q-2 1 -2 9q0 5 9 5l249 -119q3 -1 3 -5q0 -3 -2 -5l-256 -158q-11 -5 -11 8z" />
    <glyph glyph-name="question" unicode="?" horiz-adv-x="150" 
d="M33 119q-7 0 -9.5 6.5t0.5 13.5t10 7q15 0 14 -12q-1 -15 -15 -15zM47 177q-6 0 -6 4q0 2 1 3q2 5 14.5 35.5t15.5 39t13.5 36.5t14.5 41t11 38t10 41.5t5.5 37t2.5 39.5q0 36 -17.5 66t-54.5 30q-21 0 -33.5 -14.5t-12.5 -34.5q0 -48 61 -81q3 -2 3 -5q0 -5 -5 -5
q-2 0 -3 1q-67 33 -67 89q0 24 14.5 42.5t41.5 18.5q42 0 66.5 -34t22.5 -78q-3 -49 -19.5 -110.5t-28 -92.5t-40.5 -104q-1 -3 -10 -3z" />
    <glyph glyph-name="at" unicode="@" horiz-adv-x="448" 
d="M220 132q-101 0 -160.5 58.5t-59.5 150.5q0 102 84 174.5t187 72.5q71 0 121 -39t50 -113q0 -54 -28 -109.5t-77 -55.5q-27 0 -46 21.5t-25 52.5q-22 -40 -62 -41q-31 -1 -51 21.5t-18 56.5q2 36 24.5 63t57.5 27q25 0 55 -16.5t30 -39.5q0 -6 -5 -6q-2 0 -5 4.5
t-6.5 10.5t-6.5 9q0 -4 -1.5 -13.5t-1.5 -13.5q0 -30 1 -46q5 -29 20.5 -51t39.5 -22q42 0 68 49t26 98q0 69 -47.5 103t-114.5 34q-112 0 -183 -72.5t-71 -160.5q0 -95 61 -142.5t144 -47.5q23 0 56.5 6t40.5 6q6 0 6 -6q0 -9 -41 -16t-62 -7zM218 459q-32 0 -50 -25.5
t-18 -61.5q0 -23 15 -39.5t39 -16.5q40 0 58 47q-1 12 1.5 45t5.5 36q-19 15 -51 15z" />
    <glyph glyph-name="A" unicode="A" horiz-adv-x="268" 
d="M262 224q2 -4 -2 -7v0l-21 -14l3 -183q0 -5 -7 -5q-5 0 -8 5l-2 174q-66 -42 -137 -86l-34 -94q0 -4 -4 -4q-1 0 -2 1q-4 1 -3 6l29 82q-73 -45 -77 -45q-3 0 -5 3q-3 3 1 7l88 54l144 401q0 4 5 4q4 -1 4 -5l5 -302l16 10q1 1 3.5 0.5t3.5 -2.5zM95 126l130 81l-3 275z
" />
    <glyph glyph-name="B" unicode="B" horiz-adv-x="254" 
d="M92 399q153 44 155 -88q2 -103 -78 -260q-34 -67 -62 -100q-23 -26 -45 -26q-10 0 -17 4.5t-15 15t-11 13.5q-2 5 3 7q4 2 6 -2q0 -1 3.5 -7t11.5 -13t16 -8q16 -1 39 23q47 56 94 173q68 172 28 236q-34 54 -144 10l-33 -308q-2 -5 -5 -5h-1q-5 2 -4 6l29 296
q-2 -1 -6.5 -5t-6.5 -5q-3 -4 -7 0t0 7q8 9 22 22l10 108q-14 -11 -30.5 -28t-25.5 -28l-9 -11q-3 -5 -7 -1q-4 2 -1 7t16 20.5t37.5 37t42.5 28.5q36 14 51 -6q24 -33 -56 -113zM90 504l-11 -104q76 81 58 105q-8 9 -22.5 8t-24.5 -9z" />
    <glyph glyph-name="C" unicode="C" horiz-adv-x="434" 
d="M422 248q0 3 3 3q4 0 4 -4t-2 -10q-27 -65 -80 -111.5t-111.5 -59.5t-112 -1t-88.5 64.5t-35 135.5q0 38 11.5 84t33.5 93t62.5 79.5t91.5 33.5q36 1 56.5 -23t20.5 -57q0 -11 -4 -27.5t-9 -16.5q-3 0 -3 3v9q0 11 -2 16q0 3 3 3q2 0 3 -3.5t2 -3.5q1 4 1 13
q0 33 -16.5 54t-47.5 22q-42 1 -78 -26.5t-58 -70t-35 -90t-15 -91.5q2 -68 27.5 -113.5t63 -63t84 -15t90.5 24t82 60.5t58 89z" />
    <glyph glyph-name="D" unicode="D" horiz-adv-x="330" 
d="M312 344q16 -89 -30 -203q-51 -130 -164 -232q-2 -2 -3 -2q-2 0 -4 2q-3 3 1 7q106 97 159 230q43 108 26 199q-11 53 -44 93.5t-77 55.5q-16 5 -36 7l-4 -463q0 -5 -5 -5q-9 0 -9 5l3 463q-38 -2 -70.5 -23t-44.5 -54q-2 -4 -7 -2t-3 6q20 49 74 71q50 21 105 4
q48 -14 85 -57q37 -44 48 -102z" />
    <glyph glyph-name="E" unicode="E" horiz-adv-x="223" 
d="M345 446q2 -6 -3 -6q-137 -35 -251 -108q0 -6 0.5 -21t0.5 -21q3 -161 42 -194q16 -15 67 8q41 18 65 40q1 2 3.5 2t3.5 -2q3 -4 0 -7q-25 -23 -68 -42q-32 -15 -55 -15q-17 0 -25 8q-45 37 -48 203q-1 10 -1 30q-1 -1 -3 -2.5t-3 -2.5q-3 -3 -6 3q-4 4 0 8q2 1 6.5 4
t6.5 4q0 87 13 191q-43 -14 -83 -31q-4 -2 -7 3q-2 5 3 7q38 17 89 34q0 4 5 4q1 0 2 -0.5t2 -0.5q85 26 168 35q4 1 6 -4q0 -5 -5 -5q-79 -10 -162 -36q-13 -87 -16 -187q116 71 247 104q6 2 6 -3z" />
    <glyph glyph-name="F" unicode="F" horiz-adv-x="100" 
d="M284 523q5 0 5 -5t-5 -5q-100 3 -198 -39l-1 -112q51 25 114 34q6 0 6 -4q1 -4 -4 -6q-60 -9 -116 -39l-5 -325q0 -5 -7 -5q-2 -1 -4 0.5t-2 3.5l2 319q-29 -15 -54 -36q-5 0 -7 3q-4 4 1 7q29 22 60 39l1 116q-36 -17 -62 -34q-1 -1 -3.5 0t-3.5 3q-3 5 1 7q28 18 68 37
l1 11q0 3 5 6q6 0 6 -5v-7q96 39 202 36z" />
    <glyph glyph-name="G" unicode="G" horiz-adv-x="363" 
d="M487 437q6 -2 2 -6q-1 -3 -4 -3h-2l-303 153q-66 -33 -110.5 -95t-53.5 -135q-8 -63 13.5 -117.5t66.5 -88.5q38 -29 82.5 -34t83.5 14q-1 3 -5 7q-34 49 -25 88q4 19 17.5 34.5t32.5 16.5q22 2 38 -13q15 -14 20 -35q6 -37 -25 -73q-13 -18 -34 -29q26 -42 34 -89
q8 -51 -6 -97q-12 -40 -36 -65.5t-48 -34.5h-2q-3 0 -5 3q-3 9 0 10q56 21 78 91q27 90 -27 175q-28 -15 -63 -16q-67 -3 -119 35q-49 34 -72 96t-12 128q16 103 90 176q35 33 75 54l-20 10q-1 1 -1 4.5t2 5.5q2 6 6 2l29 -14q41 19 89 24q6 0 6 -5q0 -6 -6 -6
q-40 -4 -77 -20zM245 219q-9 -38 25 -82q4 -4 5 -8q19 11 33 27q27 33 22 65q-2 16 -14.5 28t-28.5 12h-4q-28 -3 -38 -42z" />
    <glyph glyph-name="H" unicode="H" horiz-adv-x="381" 
d="M376 311q4 0 4 -6t-5 -6q-1 0 -8 0.5t-9 0.5q-14 -132 -7 -253q2 -6 -4 -6h-1q-6 0 -8 5q-6 107 6 254q-69 -2 -142 -23q-1 -71 -12 -142q-19 -120 -88 -132q-44 -8 -76 27.5t-25 85.5q9 75 102 130q38 23 84 37q1 112 -26 239q-1 1 3 3.5t6 2.5q5 2 7 -3q21 -96 24 -194
q1 -15 1 -44q61 19 143 24q12 110 30 191q0 6 7 4q2 0 5 -4.5t2 -5.5q-20 -94 -30 -185h17zM177 135q8 54 10 137q-42 -13 -79 -35q-88 -51 -97 -122q-5 -38 22 -73t67 -29q61 12 77 122z" />
    <glyph glyph-name="I" unicode="I" horiz-adv-x="40" 
d="M7 14q-2 0 -4.5 2.5t-2.5 4.5q2 26 6.5 239t8.5 273q0 2 3.5 4t4.5 1q8 0 8 -5q-4 -60 -10.5 -274.5t-8.5 -239.5z" />
    <glyph glyph-name="J" unicode="J" 
d="M-48 -81q-29 0 -58 8l-1 1q-2 1 -2 2q-1 2 -1 5q2 4 6 4h2q23 -8 53 -8q107 0 158 76q50 74 41 209q-6 123 -39 241l-87 -59h-2q-4 0 -6 3q-4 6 1 9l90 60q-6 22 -20 64q-1 1 1 5q0 3 3 3q1 1 3 1q5 0 6 -4q7 -20 19 -60l58 39q1 0 2 0.5t2 0.5q3 0 5 -3q1 -1 1 -5l-1 -1
q-1 -2 -2 -2l-61 -42q33 -117 41 -249q6 -138 -42 -210q-37 -55 -101 -76q-35 -12 -69 -12z" />
    <glyph glyph-name="K" unicode="K" horiz-adv-x="281" 
d="M326 175q2 0 3.5 -3t0.5 -5q0 -5 -7 -5q-129 8 -244 -2q3 -69 13 -207q1 -4 -4 -6h-1q-3 0 -5 5q-10 138 -14 207q-42 -4 -62 -7h-1q-3 0 -5 3t2 5q7 6 20 17.5t23.5 21t19.5 18.5q-6 164 -2 269q0 8 9 8q2 1 3.5 -1t1.5 -4q-3 -130 0 -261q105 101 191 218q4 4 7 1
q2 -1 2.5 -3.5t-0.5 -3.5q-100 -136 -199 -231q0 -25 1 -38q119 12 247 4zM28 165q7 1 20 2.5t19 2.5q0 4 -0.5 14t-0.5 14q-12 -11 -38 -33z" />
    <glyph glyph-name="L" unicode="L" horiz-adv-x="164" 
d="M32 83q-21 0 -29 20q-8 15 3 26q10 9 32 7l35 -1q33 61 46 140t11.5 144.5t-11.5 168.5q-1 2 2 3.5t5 1.5q2 1 6.5 -1t4.5 -4q14 -145 8 -241q-7 -116 -57 -213l225 -16q5 0 5 -8q0 -6 -6 -6l-230 20q0 -1 -1 -1q-21 -37 -46 -40h-3zM31 126q-13 0 -18 -4q-7 -7 -1 -15
q6 -16 22 -14q17 2 34 32l-31 1h-6z" />
    <glyph glyph-name="M" unicode="M" horiz-adv-x="463" 
d="M9 -27q-7 0 -7 7q-7 131 11 267q18 135 60 260q2 5 7 5q4 0 6 -6l70 -254l80 150q15 29 31.5 46t38.5 20h7q43 0 78 -59q53 -89 56 -199q3 -111 -45 -203q-2 -4 -6 -4l-1 1h-2q-6 3 -6 6q-1 1 2 4q2 1 2 2q47 92 43 192.5t-55 187.5q-31 58 -67 58h-4q-35 -4 -64 -60
l-87 -165q-3 -7 -5 -7h-1q-5 2 -6 6l-67 250q-76 -241 -62 -497q0 -3 -2 -5q-2 -3 -5 -3z" />
    <glyph glyph-name="N" unicode="N" horiz-adv-x="306" 
d="M39 -2q-7 0 -7 5q-2 38 -7.5 129.5t-8.5 138.5q-6 119 -16 269q0 6 7 6q4 2 6 -3q15 -51 48 -199q31 -137 49 -197q16 -58 46 -71q26 -5 43 3q36 17 57 76q35 98 32.5 202.5t-41.5 200.5q-2 5 4 7q4 2 6 -3q40 -97 43 -204.5t-32 -206.5q-24 -66 -65 -85q-29 -12 -51 -4
q-36 14 -54 67q-17 51 -50 196q-6 26 -15.5 71t-14.5 64q1 -24 3 -59t4 -65t4 -64q11 -210 15 -269q2 -5 -4 -5h-1z" />
    <glyph glyph-name="O" unicode="O" horiz-adv-x="416" 
d="M89 57q-37 30 -62 86q-29 65 -27 135q2 72 39 130q40 60 111 80q73 23 133 -11q4 -1 2 -7q-2 -4 -7 -2q-55 30 -121.5 9.5t-105.5 -78.5q-34 -51 -36.5 -120t27.5 -135q20 -47 58.5 -80.5t87.5 -32.5q64 1 126 75q90 103 75 206q-12 67 -68 103q-40 27 -88 14q-4 -1 -7 7
q-2 4 4 6q48 12 97 -19q28 -18 47.5 -47.5t24.5 -61.5q9 -62 -14.5 -119.5t-57.5 -97.5q-66 -77 -138 -80q-48 -1 -100 40z" />
    <glyph glyph-name="P" unicode="P" horiz-adv-x="155" 
d="M232 551q32 -43 26 -102q-6 -57 -42 -101q-42 -50 -111 -92l2 -159q0 -5 -5 -5q-8 0 -8 6l-2 150q-8 -4 -23.5 -12.5t-23.5 -12.5l-2 -1q-3 0 -5 3q-2 4 2 6q49 27 52 29l-5 326q-34 -13 -56 -45t-21 -69q0 -5 -5 -5t-5 5q-2 39 24 76q24 35 63 49v24q0 2 3.5 5t5.5 3
q1 1 3 -0.5t2 -3.5v-24q33 6 66 -4q39 -12 65 -46zM201 352q34 41 42.5 89.5t-20.5 96.5q-21 28 -55 43.5t-67 8.5l4 -321q60 39 96 83z" />
    <glyph glyph-name="Q" unicode="Q" horiz-adv-x="407" 
d="M308 -100h-1q-7 2 -5 9q23 86 -8 180q-80 -48 -166.5 -18.5t-116.5 113.5q-25 73 19 145q-22 18 -28.5 51.5t9.5 63.5q35 58 103.5 65t131.5 -23t97 -74q35 -46 46 -102t-6 -106q-9 -28 -31.5 -59t-45.5 -48q34 -99 7 -193q-2 -4 -5 -4zM39 317q-41 -64 -13 -134
q21 -52 67 -81.5t99.5 -29t96.5 30.5q-20 46 -52.5 78t-63 46.5t-69.5 38.5t-65 51zM47 330q32 -32 88.5 -62.5t100 -65t66.5 -91.5q67 56 75 140.5t-46 153.5q-34 44 -95.5 72t-124 20.5t-88.5 -60.5q-23 -47 15 -96q34 44 88.5 60t103.5 -4q4 -2 2 -7q-2 -4 -6 -2
q-48 19 -99 0.5t-80 -58.5z" />
    <glyph glyph-name="R" unicode="R" horiz-adv-x="273" 
d="M404 152q5 0 5 -5q-4 -5 -8 -4q-148 30 -292 -11l-9 -124q0 -6 -5 -6h-1q-2 0 -4.5 2.5t-2.5 4.5l7 119q-5 -2 -40 -15q-39 -17 -46 -19q0 -1 -2 -1t-4 2q-3 5 1 7q2 1 44 24q3 2 50 32l22 325q-29 -17 -43 -47q-15 -33 -16 -80t4 -79q2 -5 -4 -5q-3 0 -4.5 1t-0.5 3
q-6 33 -4.5 82t17.5 83q18 36 51 54l3 44q0 2 3.5 4.5t5.5 2.5q4 0 4 -6l-3 -37q1 1 3.5 1t3.5 1q37 12 69 -3q27 -13 39 -44.5t10 -64t-12 -61.5q-28 -80 -93 -145q-18 -19 -43 -38l-1 -7q41 12 91 19q109 12 205 -9zM142 496l-5 -2.5l-5 -2.5l-22 -323q89 72 121 165
q7 22 9.5 51t-5.5 62t-31 44q-31 16 -62 6zM95 138q0 1 1 1q-1 0 -1 -1z" />
    <glyph glyph-name="S" unicode="S" horiz-adv-x="190" 
d="M108 1q-21 0 -44 10q-4 4 -2 7q2 5 7 2q22 -11 46.5 -8.5t40.5 16.5q34 31 11 89q-11 33 -67 97q-61 71 -78 103q-34 62 -15 116q9 27 31 49t51 31q66 21 134 -4q3 -1 3 -6q-2 -5 -7 -3q-66 24 -127 1q-50 -19 -68 -66q-21 -53 12 -114q20 -36 77 -97q53 -56 71 -104
q10 -22 4.5 -53t-25.5 -49q-20 -17 -55 -17z" />
    <glyph glyph-name="T" unicode="T" horiz-adv-x="172" 
d="M396 539q4 0 4 -5q0 -4 -2 -6t-4 -2l-2 -1q-48 -2 -245 -20l-11 -472q0 -5 -5 -5t-5 5l5 470q-14 -1 -58.5 -7t-67.5 -8q-5 0 -5 5t5 5q28 3 111.5 14t144.5 17t135 10z" />
    <glyph glyph-name="U" unicode="U" horiz-adv-x="322" 
d="M299 -134q-9 0 -11 29t-2 117v56q0 125 2 195q-11 -198 -126 -253q-20 -9 -42 -9q-60 0 -90 56.5t-30 185.5q0 69 2.5 123.5t6 80t6.5 25.5q9 0 9 -4l-1 -14q-1 -15 -3 -38.5t-3.5 -52t-2.5 -63t-1 -64.5q0 -115 25 -169t85 -54q21 0 35 7q29 14 51 39.5t35 64t21.5 71.5
t12 83.5t5 77t1.5 75v55.5q0 4 16 4q0 -579 4 -618q0 -4 -5 -6z" />
    <glyph glyph-name="V" unicode="V" horiz-adv-x="267" 
d="M158 3q-3 0 -5 4l-153 419q-2 5 3 7q2 1 7.5 0.5t5.5 -1.5l142 -396q25 126 85 245q64 129 164 234q4 4 7 1t1 -7q-202 -212 -252 -502q0 -4 -5 -4z" />
    <glyph glyph-name="W" unicode="W" horiz-adv-x="399" 
d="M82 48h-1q-4 2 -4 5q-19 207 -77 408q-2 6 4 6q1 1 5.5 0.5t5.5 -2.5q49 -169 70 -376l66 267q0 4 5 4q4 0 4 -5q7 -56 38 -150q43 -127 83 -120q6 2 13 7q22 18 47.5 78t42.5 127.5t14 129.5t-32 81q-3 1 0 10q4 4 7 1q32 -21 36.5 -86t-12.5 -135.5t-44 -133.5t-52 -85
q-71 -64 -138 200q-11 41 -11 42l-65 -269q-2 -4 -5 -4z" />
    <glyph glyph-name="X" unicode="X" horiz-adv-x="339" 
d="M441 538q1 -2 -0.5 -6t-2.5 -4q-117 -35 -215 -176q124 -152 173 -344q0 -6 -4 -6l-1 -1q-6 0 -9 6q-47 184 -167 330q-1 -1 -43 -72.5t-71 -114.5l-10 -3q-2 0 -3 5t0 7q26 32 115 191q-52 62 -157 137q-1 1 1 8t4 9q2 4 7 1q86 -63 154 -143q98 143 223 179q6 2 6 -3z
" />
    <glyph glyph-name="Y" unicode="Y" horiz-adv-x="259" 
d="M270 332q4 -4 0 -7l-24 -24q-15 -99 -59 -188.5t-111.5 -155.5t-156 -92.5t-191.5 1.5q-5 2 -4 6t6 4q98 -26 181 -2.5t148 86t108.5 147t62.5 179.5q-77 -77 -119 -94q-25 -10 -44 -5q-20 6 -28 34q-4 14 -20.5 133.5t-18.5 134.5q0 5 4 5q10 3 10 -3q0 -2 8 -62.5
t17 -126t12 -74.5q6 -24 21 -28q43 -12 153 96q5 6 8 8q9 69 1 164q0 2 3.5 5t5.5 3q5 0 5 -5q8 -82 -1 -154q16 14 16 15q1 2 3 2t4 -2z" />
    <glyph glyph-name="Z" unicode="Z" horiz-adv-x="202" 
d="M292 54l-278 3q-13 0 -13 4q-4 8 0 10q265 355 285 392q1 2 -17.5 -1t-45.5 -9l-54 -12t-46 -11l-19 -4q-5 0 -5 5t5 5q16 5 41.5 12t77.5 18.5t73 11.5q7 0 7 -6q0 -4 -5 -13q-16 -31 -86 -128.5t-132 -179.5l-62 -82l276 -2q6 0 4 -5q0 -3 -1.5 -5t-2.5 -3h-2z" />
    <glyph glyph-name="bracketleft" unicode="[" horiz-adv-x="154" 
d="M76 49l-28 2q-3 0 -4 1t-1 4l33 517q0 5 6 5l48 1q6 0 6 -6q0 -5 -5 -5l-44 -1l-28 -506l17 -1q6 0 6 -5q-2 -6 -6 -6z" />
    <glyph glyph-name="backslash" unicode="\" horiz-adv-x="235" 
d="M214 24q-10 0 -11 1l-236 520q-2 6 3 8t7 -3l242 -518q2 -1 1 -3.5t-3 -3.5q-1 0 -3 -1z" />
    <glyph glyph-name="bracketright" unicode="]" horiz-adv-x="154" 
d="M20 53q-5 0 -5 6q0 5 5 5l33 1l19 497l-55 6q-5 2 -5 6q0 7 6 5l60 -6q5 0 5 -5l-16 -509q0 -3 -1 -4t-4 -1z" />
    <glyph glyph-name="asciicircum" unicode="^" horiz-adv-x="209" 
d="M5 488q-2 0 -3 1q-5 4 -1 8l108 114q2 2 4 2q3 0 5 -2l79 -113q3 -5 -1 -8q-4 -4 -8 1l-76 108l-103 -109q-1 -2 -4 -2z" />
    <glyph glyph-name="underscore" unicode="_" horiz-adv-x="348" 
d="M328 76l-323 5q-5 0 -5 6q0 5 5 5h1l322 -5q5 0 5 -5q0 -6 -5 -6z" />
    <glyph glyph-name="grave" unicode="`" horiz-adv-x="141" 
d="M120 423h-1q-57 12 -91 62q-3 4 1 8q4 3 8 -1q25 -40 85 -54q2 0 3 -4t0 -7q0 -4 -5 -4z" />
    <glyph glyph-name="a" unicode="a" horiz-adv-x="141" 
d="M22 197q-26 0 -29 31q-3 36 25 64q14 13 35.5 16t39.5 -5q1 0 1 1t0.5 2.5t0.5 2.5q2 5 6 3q8 -3 7 -7q0 -1 -1 -2.5t-1 -2.5q-9 -49 5 -57q9 -5 31 20q3 5 7 1q3 -3 1 -7q-26 -32 -44 -23q-14 8 -14 35q-13 -28 -32 -50t-38 -22zM27 283q-13 -15 -17 -31t-2 -25.5
t5 -13.5q14 -18 43 17.5t34 62.5q-20 6 -37 2.5t-26 -12.5z" />
    <glyph glyph-name="b" unicode="b" horiz-adv-x="160" 
d="M169 266q4 -2 1 -7q-35 -54 -86 -76q-11 -17 -28.5 -29t-33.5 -13h-5q-18 0 -24 13q-2 7 1 11q3 6 28 11q29 4 52 14q10 12 11 32t-13 30q-29 16 -63 -26l-2 -2q-1 -6 -2.5 -18.5t-2.5 -19.5q0 -4 -5 -4q-7 0 -7 5q21 176 42 279q15 78 32 133q19 59 42 66q5 3 11 -1
q10 -8 10 -47q-7 -81 -35 -173q-33 -111 -80 -185q0 -3 -0.5 -8t-1.5 -8q36 39 71 24q13 -5 16.5 -20t0.5 -28.5t-8 -21.5q42 23 72 68q4 4 7 1zM47 465q-11 -53 -31 -180q41 73 68 167t33 166q2 30 -6 38h-1h-1q-26 -11 -62 -191zM21 151q22 2 43 24q-15 -5 -41 -9
q-18 -2 -21 -6q0 -1 1 -2q4 -10 18 -7z" />
    <glyph glyph-name="c" unicode="c" horiz-adv-x="140" 
d="M58 192q-19 2 -35.5 16.5t-20.5 35.5q-7 35 8.5 63.5t33.5 42.5q13 11 28 6t18 -26q2 -5 -4 -7q-1 -1 -3 0.5t-2 3.5q-8 29 -26 18q-19 -12 -32.5 -42.5t-6.5 -56.5q5 -17 20.5 -29.5t35.5 -11.5q19 1 39.5 16.5t31.5 41.5q3 3 7 -1q2 -2 0 -7q-8 -25 -34.5 -46
t-57.5 -17z" />
    <glyph glyph-name="d" unicode="d" horiz-adv-x="127" 
d="M86 114q-5 0 -5 5q-1 10 -4.5 36.5t-5.5 48t-2 43.5l-2 -3q-2 -2 -4.5 -5.5t-6 -7.5t-8 -7t-8.5 -5q-13 -6 -27 5q-17 12 -15 36q5 33 40 46q15 5 30 5q2 95 5 141q7 88 21 151q14 60 41 72q10 4 18 -4q24 -31 -2 -185q-26 -139 -68 -216q2 -97 8 -150q0 -5 -5 -5v-1z
M68 301q-13 -1 -26 -6q-29 -11 -30 -37q-2 -16 10 -23q19 -14 40 19l6 9v38zM83 301v-9l4 8h-1q-2 1 -3 1zM83 311q2 0 4.5 -0.5t3.5 -0.5q32 76 50 178q26 150 4 176q-3 3 -6 2q-34 -14 -49 -213q-5 -63 -7 -142z" />
    <glyph glyph-name="e" unicode="e" horiz-adv-x="104" 
d="M32 212q-28 10 -32 43q-3 40 20 58q5 5 13.5 6t14.5 -3q13 -9 -4 -28q-4 -5 -15 -14t-17 -15q1 -27 24 -36q22 -10 46 11q14 11 24 29q4 4 7 2q5 -4 2 -7q-11 -19 -25 -30q-31 -26 -58 -16zM38 309q-5 0 -9 -4q-15 -12 -17 -35q5 6 13 13t11 10q10 13 6 15q-1 1 -4 1z
" />
    <glyph glyph-name="f" unicode="f" horiz-adv-x="85" 
d="M19 -17q-12 -4 -14 5q-14 82 -5 266q3 62 9 113q9 87 35 176t64 125q12 10 20 2q12 -10 1 -69q-12 -55 -34 -125q-44 -141 -81 -224q-10 -147 3 -253q0 -7 12 4q1 2 2 3q28 33 -17 135q-9 23 13 40q29 26 59 81q3 4 7 3q5 -3 2 -7q-14 -29 -30 -50t-25.5 -28.5t-15 -15
t-2.5 -15.5q25 -54 28 -97q3 -37 -13 -56q-5 -7 -18 -13zM115 660q-61 -61 -91 -296q-6 -48 -8 -81q33 82 69 196q54 171 37 183q-2 2 -7 -2z" />
    <glyph glyph-name="g" unicode="g" horiz-adv-x="116" 
d="M124 265q5 -2 3 -7q-4 -4 -48 -102q0 -83 -9 -161q-9 -83 -43 -143q-26 -48 -55 -57q-15 -2 -21 6q-14 16 11 94q21 63 59 155q20 46 45 102q0 45 -7 122q-8 -19 -29 -34q-22 -15 -29 7q-7 27 10 46q19 20 44 13q0 2 -0.5 6.5t-0.5 7.5q-1 3 6 5q9 0 9 -4q7 -63 9 -143
l40 84q2 5 6 3zM25 249q27 17 30 47q-1 0 -4 0.5t-5 0.5q-12 0 -22 -9q-14 -16 -9 -34q3 -10 10 -5zM57 -1q8 66 9 128q-21 -46 -35 -81q-92 -215 -72 -239q0 -5 10 -2q24 6 48 54q30 56 40 140z" />
    <glyph glyph-name="h" unicode="h" horiz-adv-x="144" 
d="M149 265q5 -2 3 -7q-28 -60 -55 -99q-7 -12 -18 -10q-9 2 -14 9q-4 8 -4 22q0 16 -3 20q-7 7 -14 0l-5 -5q-8 -13 -13 -51q-1 -6 -4 -32t-3 -28q-2 -4 -5 -4q-7 0 -7 4q0 2 -1.5 37.5t-3 76.5t-1.5 49q-2 68 0 204q3 225 42 247q7 5 15 0q23 -15 22 -90q-3 -64 -19 -152
q-6 -35 -14.5 -73.5t-14.5 -63.5t-11.5 -45.5t-5.5 -21.5q0 -18 1 -51.5t1 -46.5q8 42 20 53q13 14 28 3q9 -8 9 -24q0 -12 1 -19q2 -7 7 -7q3 -2 7 4q12 17 25.5 41.5t21.5 40.5l7 16q2 5 6 3zM14 453q-1 -54 -1 -169q26 102 38 174q38 209 2 231q-1 1 -3 1t-2 -1
q-16 -10 -24 -75q-7 -53 -10 -161z" />
    <glyph glyph-name="i" unicode="i" horiz-adv-x="110" 
d="M21 167q-31 4 -25 63q1 12 5.5 31.5t8.5 33.5l5 14q2 6 6 4q11 -4 10 -6q-20 -52 -22 -77q-4 -51 14 -53q21 -4 53 28q30 29 37 56q2 5 6 4q4 0 4 -6q-7 -30 -41 -62q-38 -34 -61 -30zM40 351q0 -11 -11 -11t-11 11t11 11t11 -11z" />
    <glyph glyph-name="j" unicode="j" horiz-adv-x="52" 
d="M-100 -239h-1q-6 0 -9 5q-10 17 14 98q23 73 58 167q19 52 38 98q0 15 0.5 30t0.5 29v27.5t-0.5 25t-0.5 22v18.5t-0.5 13.5t-0.5 9.5v3q0 6 10 6q6 0 6 -4q0 -104 -1 -144q10 24 20.5 49t15.5 36l4 11q2 5 7 3q4 -2 2 -7l-6 -15q-6 -14 -19 -45t-25 -62
q-2 -132 -14 -195q-13 -69 -42.5 -124t-56.5 -55zM0 102q-4 -10 -29 -75q-43 -117 -57 -166q-24 -79 -15 -90h1q21 0 48 52.5t39 118.5q9 48 13 160zM22 340q0 -12 -12 -12q-11 0 -11 12q0 11 11 11q12 0 12 -11z" />
    <glyph glyph-name="k" unicode="k" horiz-adv-x="130" 
d="M141 265q5 -2 3 -6l-4 -9q-3 -8 -7.5 -18.5t-12 -24.5t-15 -26t-16.5 -22t-17 -14q-31 -15 -64 25q-1 -8 -2.5 -36t-3.5 -43q0 -5 -5 -5l-3 1q-5 0 -5 5q2 25 4 61q26 427 49 510q9 33 25 31q13 -2 18 -33t2 -70q-10 -133 -74 -337v-12q0 1 2 3q10 10 24 8q13 -4 17 -12
q9 -22 -14 -34q-20 -12 -24 -16q-6 -7 3 -18q29 -29 47 -19q14 7 30.5 34t26 49.5t9.5 24.5q2 5 7 3zM54 659q-17 -57 -38 -361q51 171 61 293q3 44 -2 68q-4 25 -9 25q-6 -1 -12 -25zM10 199q3 4 17 13l5 2.5t4 2.5q13 11 9 21q-2 3 -8 5q-8 2 -15 -5q-8 -8 -12 -30v-9z
" />
    <glyph glyph-name="l" unicode="l" horiz-adv-x="146" 
d="M33 154q-23 18 -30 70q-11 87 17 223q26 128 59 165q14 17 26 10q10 -5 11 -29.5t-3 -51.5t-11 -53q-11 -41 -40.5 -120.5t-47.5 -109.5h-1q1 -12 3 -32q8 -50 28 -63q5 -4 15 -2q17 4 39 30t36 48t14 24q4 4 7 2q4 -3 2 -7q-4 -9 -16.5 -29t-37 -48t-43.5 -33
q-16 -4 -27 6zM100 614q-4 0 -11 -9q-29 -32 -56 -161q-20 -94 -20 -166q18 37 43.5 106.5t35.5 106.5q12 43 14 82q2 36 -5 40z" />
    <glyph glyph-name="m" unicode="m" horiz-adv-x="243" 
d="M3 172h-4q-4 2 -4 7l13 172q0 5 6 5q7 0 7 -5l-10 -125q27 75 63 94q13 8 30 2q14 -5 18 -25.5t3 -33.5q15 23 31 23q15 -1 23 -38q10 -35 20 -36q14 -2 27 15.5t20 34.5q2 5 7 3q4 -2 2 -7q0 -2 -6.5 -15t-20 -27t-27.5 -14h-3q-21 2 -31 42q-6 29 -13 30q-20 2 -33 -53
q0 -7 -5 -4q-2 0 -4.5 2t-1.5 4q3 51 -4 75q-7 22 -29 10q-47 -27 -69 -132q-1 -4 -5 -4z" />
    <glyph glyph-name="n" unicode="n" horiz-adv-x="165" 
d="M167 268q0 3 4 3q2 0 2 -2q0 -11 -16.5 -33t-32.5 -25q-15 -2 -24 10q-8 11 -10.5 38t-5 47t-14.5 20q-40 0 -50 -169q0 -1 -3.5 -2t-7.5 -1t-4 1q0 89 -5 153q0 3 4 3q7 0 7 -3q2 -7 2.5 -31t0.5 -53v-37q0 1 1 14t2 24.5t3.5 28.5t7 30.5t10 26t14 19.5t19.5 7
q23 0 28 -34q1 -5 2 -17.5t2.5 -22t4 -20t7 -16t11.5 -5.5q11 1 23.5 17t17.5 29z" />
    <glyph glyph-name="o" unicode="o" horiz-adv-x="96" 
d="M18 179q-6 0 -10 3q-20 9 -18 43q5 59 38 67q18 5 31 -5q13 -11 13 -27q0 -5 -5 -5t-5 5q0 12 -9 19q-10 7 -23 0q-25 -14 -27 -57q0 -24 11 -30q9 -4 17 3q13 11 19 34q-2 1 -5 4q-10 12 -4 24q3 7 9 7q8 0 12 -9q4 -5 0 -21q6 -2 11 -1q16 3 25 29q2 5 7 3t3 -6
q-10 -31 -33 -36q-9 -2 -16 1q-7 -25 -22 -37q-9 -8 -19 -8zM51 254q-1 0 -1 -1t-1 -2q0 -7 4 -11v11z" />
    <glyph glyph-name="p" unicode="p" horiz-adv-x="126" 
d="M136 263q2 -3 -2 -7l-4 -2q-4 -3 -10.5 -7t-14.5 -8.5t-18.5 -10t-20.5 -10.5q-8 -18 -25.5 -34.5t-29.5 0.5q-4 -39 -7 -111.5t-4.5 -122.5t-1.5 -56q0 -4 -5 -4h-1q-6 3 -5 7q0 184 16 438q0 2 3.5 3.5t5.5 0.5q5 0 5 -5q-1 -14 -2.5 -36.5t-3.5 -43.5q1 2 2.5 7t2.5 7
q24 62 48 64q20 1 21 -37q0 -28 -12 -63q49 26 56 33q3 2 7 -2zM26 200q-7 -3 -6 -11q1 -13 20 9q4 5 9 12q-2 -1 -23 -10zM56 224q24 65 14 92q-7 21 -31 -23q-6 -12 -13 -28q-4 -10 -7 -23.5t-4.5 -25t-2.5 -13.5q6 6 22.5 12t21.5 9z" />
    <glyph glyph-name="q" unicode="q" horiz-adv-x="131" 
d="M47 -146q-1 0 -1 1q-4 0 -4 5q0 4 6 234q-8 14 -11.5 23.5t-1.5 24t14 28.5l1 1q1 15 4 94q0 -1 -1 -1l-1 -2q-15 -32 -27 -33q-13 -2 -21 12q-8 15 0 34.5t24 28.5q15 9 31 6.5t24 -15.5q2 -4 -2 -7q-3 -2 -7 2q-2 5 -4 6q0 -5 -2.5 -42t-3.5 -67q13 14 31 33.5t29 31.5
l12 12q4 4 7 0q3 -3 1 -7q-53 -53 -80 -85q-4 -53 -5 -78q10 -17 15 -27q19 -48 0 -133q-4 -19 -9.5 -38t-9 -28.5t-4.5 -9.5q0 -4 -4 -4zM57 77q-1 -43 -2.5 -108.5t-1.5 -77.5q35 115 11 172q-3 7 -7 14zM50 153q-11 -18 -1 -39q0 26 1 39zM56 301q-10 0 -19 -6
q-13 -8 -20.5 -21.5t-1.5 -24.5q4 -8 9 -8q7 1 17.5 22.5t14.5 36.5v1z" />
    <glyph glyph-name="r" unicode="r" horiz-adv-x="124" 
d="M132 264q5 -3 1 -7q-17 -19 -34 -37q-33 -34 -47 -37q-14 -2 -20 12q-6 22 13 58q-13 -6 -25 -3q-21 5 -31 26q-11 26 -5 58.5t23 50.5q17 17 34 11q17 -8 17 -26q1 -28 -45 -106q2 -2 9 -4q20 -5 39 15q1 0 1 0.5t1 0.5q3 4 7 0t0 -7q-1 -1 -2 -1q-11 -12 -19 -34.5
t-4 -34.5q2 -5 7 -6q6 0 41 35q32 34 32 36q3 4 7 0zM6 271q3 5 9 16t9 16t7.5 14l7 14t5 12.5t3.5 13t1 11.5q-1 14 -11 19q-1 0 -3 1h-2q-9 0 -17 -10q-17 -20 -19.5 -57t10.5 -50z" />
    <glyph glyph-name="s" unicode="s" horiz-adv-x="106" 
d="M9 91q-1 15 26 52l-7 22q-7 22 -15.5 51t-11.5 43q-4 23 8.5 46t41.5 29q5 0 6 -4q0 -5 -4 -6q-20 -5 -32 -23t-8 -40q3 -18 16 -58.5t16 -45.5q32 37 63 107q2 4 5 1q4 -4 3 -7q-24 -54 -68 -113q10 -38 -16 -58q-16 -13 -22 0q-1 2 -1 4zM37 131q-22 -30 -19 -39
q2 -8 12 4q11 16 7 35z" />
    <glyph glyph-name="t" unicode="t" horiz-adv-x="41" 
d="M174 435q5 0 5 -5t-5 -5q-92 -7 -163 -16q0 -32 0.5 -75.5t0 -88t-0.5 -90.5t-0.5 -86t-1 -71.5t-0.5 -51.5v-19q0 -4 -4 -4q-7 0 -7 6q0 322 -1 478l-75 -7q-5 0 -5 7q0 5 4 5q14 1 40.5 3.5t35.5 3.5v41q0 5 7 5q3 2 5 -4q1 -6 1 -19v-21q13 1 164 14z" />
    <glyph glyph-name="u" unicode="u" horiz-adv-x="135" 
d="M106 169h-1q-3 0 -5 5l-2 69q-4 -26 -28 -50q-27 -25 -50 -13q-24 13 -21 74l5 48q1 5 7 5q7 -2 7 -6q-5 -17 -6 -47q-3 -52 14 -65q7 -4 18.5 -0.5t19.5 12.5q34 40 30 131q1 5 6 6q4 0 6 -5l6 -158q-2 -6 -6 -6z" />
    <glyph glyph-name="v" unicode="v" horiz-adv-x="75" 
d="M33 165q-3 0 -5 5q-3 10 -10 34t-11.5 38.5t-13 36.5t-17.5 40q-1 1 1 5t4 5q8 3 9 -1q23 -57 39 -118q5 45 31 142q2 5 6 4t4 -6q-26 -96 -32 -180q0 -5 -5 -5z" />
    <glyph glyph-name="w" unicode="w" horiz-adv-x="138" 
d="M37 124q-5 0 -5 5q2 26 -11 71.5t-30 79.5q-1 -3 -5 -1q-5 2 -3 7l3 6q2 4 6 4q7 2 9 -1q20 -36 38 -125q0 2 2.5 15.5t5 29.5t3.5 22q0 5 5 5t5 -5q0 -27 7 -55q4 -23 9 -22q18 13 31 102q12 82 7 142q-2 6 4 6q4 0 6 -5q5 -62 -7 -144q-13 -92 -35 -109q-6 -5 -13 -3
q-11 5 -16 46q0 -2 -2.5 -15t-5 -29t-3.5 -23q0 -4 -5 -4z" />
    <glyph glyph-name="x" unicode="x" horiz-adv-x="140" 
d="M132 315q2 -5 -2 -7q-35 -22 -69 -57q44 -56 62 -124q2 -6 -4 -6q-4 -2 -6 3q-15 61 -59 118q-24 -26 -37 -47q-8 -11 -10 -24t7 -23q4 -4 1 -7q-3 -5 -7 -1q-24 18 0 61q22 33 39 51q-31 37 -73 65q-3 3 1 9q1 1 5 2t5 0q37 -26 70 -67q31 33 70 55q3 3 7 -1z" />
    <glyph glyph-name="y" unicode="y" horiz-adv-x="131" 
d="M24 -250q-4 0 -9 6q-22 37 -23 94q-2 58 15 127q19 80 60 167q-2 72 -9 124q-19 -45 -39 -48q-10 0 -13 8q-7 15 -7 86q0 6 7 6t7 -5q0 -70 5 -82l2 -1q6 0 16.5 16t18.5 41q1 3 5 3q8 0 8 -1q8 -43 11 -125q25 48 58 98q3 3 7 1q4 -4 1 -7q-40 -59 -65 -112
q2 -104 -5 -191q-8 -81 -19 -141q-11 -54 -29 -63q-1 -1 -3 -1zM24 -238v-1q8 4 19 58q12 63 18 138q7 80 7 164q-36 -80 -51 -146q-35 -147 7 -213z" />
    <glyph glyph-name="z" unicode="z" horiz-adv-x="183" 
d="M-54 -150q-4 0 -7 3q-12 12 27 80q31 56 86 138q42 62 43 63q-6 25 -30 44q-34 24 -79 5q-4 -1 -7 2q-2 3 2 7l136 102l-112 -39q-4 -2 -6 4q0 4 4 6l133 43q3 1 5 -3q1 -2 -1 -6l-127 -98q28 6 59 -13q22 -13 31 -41q80 116 82 116q2 4 7 1q3 -1 1 -7q-4 0 -86 -123
q2 -12 2 -21q2 -62 -43 -140q-41 -74 -96 -113q-16 -10 -24 -10zM-54 -140q6 0 19 9q53 36 94.5 114t37.5 137q-6 -8 -35 -52q-57 -86 -86 -137q-34 -62 -30 -71z" />
    <glyph glyph-name="braceleft" unicode="{" horiz-adv-x="142" 
d="M89 65q-39 0 -62 30.5t-23 74.5q0 37 22 95l-22 6q-4 2 -4 6t4 5q24 7 24 51q0 15 -9 50t-9 58q0 31 20 59t57 28q22 0 22 -8q0 -5 -5 -5q-3 0 -8.5 1t-7.5 1q-29 0 -46.5 -24.5t-17.5 -54.5q0 -22 10 -56t10 -52q0 -35 -23 -52l14 -3q4 -4 4 -8q-20 -52 -20 -99
q0 -40 18.5 -64t50.5 -24q7 0 20 3.5t16 3.5q6 0 6 -5q0 -8 -14.5 -12.5t-26.5 -4.5z" />
    <glyph glyph-name="bar" unicode="|" horiz-adv-x="72" 
d="M27 43q-12 0 -12 6l-15 607q0 6 5 6q6 0 6 -5l21 -608q0 -4 -5 -6z" />
    <glyph glyph-name="braceright" unicode="}" 
d="M40 79q-12 0 -26 4.5t-14 12.5q0 5 5 5q3 0 14 -3.5t19 -3.5q32 0 52.5 23.5t20.5 61.5q0 49 -20 102q0 6 4 8l14 3q-24 18 -24 56q1 17 10.5 50t9.5 55q0 30 -17 54t-46 24q-3 0 -9 -1t-8 -1q-5 0 -5 5q0 8 22 8q34 0 56.5 -29t22.5 -62q0 -26 -10.5 -58.5t-10.5 -47.5
q0 -41 26 -49q4 -2 4 -5q0 -4 -4 -6l-22 -6q21 -59 21 -98q0 -42 -23.5 -72t-61.5 -30z" />
    <glyph glyph-name="asciitilde" unicode="~" horiz-adv-x="240" 
d="M5 290q-6 0 -6 5q0 11 22.5 24.5t40.5 12.5q18 0 49 -14t48 -14q33 0 53 23q1 1 4 1q5 0 5 -5q0 -13 -23.5 -23.5t-42.5 -9.5q-17 1 -49.5 14t-48.5 13q-20 0 -48 -26q-1 -1 -4 -1z" />
    <glyph glyph-name="cent" unicode="&#xa2;" horiz-adv-x="222" 
d="M199 278q1 -1 1 -3q0 -3 -1 -4q-18 -22 -46.5 -34t-55.5 -7q0 -11 0.5 -45.5t1.5 -53.5q0 -5 -4 -5q-9 -8 -9 106q-36 5 -61 37.5t-25 73.5q0 78 87 107q0 4 0.5 13.5t0.5 18t1 17.5t2.5 14.5t3.5 5.5q5 0 5 -5q-2 -42 -3 -62q11 2 38 -1.5t27 -12.5q0 -5 -5 -5
q-1 0 -1 0.5t-1 0.5q-23 10 -58 5q-3 -98 0 -198q24 -6 50.5 5t44.5 31q0 2 3 2t4 -1zM12 344q0 -36 19.5 -65t53.5 -36q0 146 2 193q-34 -8 -54.5 -32.5t-20.5 -59.5z" />
    <glyph glyph-name="sterling" unicode="&#xa3;" horiz-adv-x="191" 
d="M169 178q3 -2 3 -4q0 -10 -12 -15t-22 -5t-30.5 4.5t-32.5 4.5q-36 0 -67 -17q-8 0 -8 6q0 5 17 11q21 38 31 94l-32 -5q-2 -1 -4 0.5t-2 3.5q0 5 5 7l35 6q4 23 4 51q0 15 -3 40t-4 44q-2 21 11.5 37t33.5 16q16 0 27.5 -12t11.5 -28q0 -8 -6 -8q-5 0 -5 5v4
q0 11 -8 19.5t-20 8.5q-15 0 -23.5 -12.5t-8.5 -30.5q0 -7 3.5 -34.5t3.5 -49.5q0 -16 -4 -48l53 8h1q3 0 5 -4q0 -5 -5 -7l-56 -9q-7 -46 -29 -91q21 6 42 6q12 0 33 -4.5t31 -4.5q8 0 18 7l10 7q2 0 3 -1z" />
    <glyph glyph-name="currency" unicode="&#xa4;" horiz-adv-x="228" 
d="M204 457v-2q0 -1 -9 -7.5t-21 -14.5t-16 -14q16 -14 16 -42q0 -32 -20 -52l36 -50q1 -1 1 -3q0 -5 -6 -5q-3 0 -4 2l-35 48q-21 -17 -46.5 -15.5t-46.5 20.5q-7 -3 -18 -11t-19.5 -14.5t-10.5 -6.5q-5 0 -5 6q0 15 44 35q-16 22 -16 38q0 35 28 63l-29 56l-1 2q0 6 5 6
q3 0 6 -3l28 -54q28 12 43.5 8.5t41.5 -20.5q28 33 49 33q3 0 5 -3zM156 347q7 14 7 29q0 34 -34 50.5t-65 -4.5q-1 0 -2 1q-41 -41 -12 -80q21 -31 58 -29q33 1 48 33z" />
    <glyph glyph-name="dieresis" unicode="&#xa8;" horiz-adv-x="220" 
d="M29 632q9 6 20 4t18 -10q8 -8 7 -19.5t-9 -19.5q-7 -7 -15 -8q-10 -3 -19.5 2.5t-12.5 15.5q-9 22 11 35zM165 632q9 6 20 4t18 -10q8 -8 7 -19.5t-9 -19.5q-7 -7 -15 -8q-10 -3 -19.5 2.5t-12.5 15.5q-9 22 11 35z" />
    <glyph glyph-name="copyright" unicode="&#xa9;" horiz-adv-x="216" 
d="M104 302q-34 0 -34 39q0 27 14 45t29 18q8 0 17.5 -5t9.5 -12q0 -6 -6 -6q-2 0 -8 5.5t-12 5.5q-13 0 -23 -14t-10 -38q0 -27 22 -27q12 0 27 14t19 14q5 0 5 -5q0 -11 -20 -22.5t-30 -11.5zM107 251q-44 0 -75.5 33t-31.5 80q0 42 28 71t66 29q26 0 51 -18l1 1l1 -1h2
q27 -13 43.5 -38.5t16.5 -54.5q0 -42 -30 -72t-72 -30zM92 453q-34 0 -57.5 -26.5t-23.5 -63.5q0 -41 28 -71t67 -30q40 0 66 27t26 65q0 46 -39 73q0 -4 -5 -4q-4 0 -5 3q-19 27 -57 27z" />
    <glyph glyph-name="registered" unicode="&#xae;" horiz-adv-x="226" 
d="M121 375q3 0 8 0.5t7 0.5q45 0 45 -11q0 -5 -6 -5t-18.5 2t-19.5 2q-13 0 -49 -8v-46q1 -1 1 -3l-1 -7q0 -5 -5 -5q-6 0 -6 6v53q-3 1 -4 4q0 6 4 7l-1 59q-5 2 -5 6q0 7 9.5 12t17.5 5q16 0 26.5 -11t10.5 -27q0 -20 -14 -34zM96 371q29 13 29 38q0 11 -7 19t-18 8
q-7 0 -13 -4l1 -63q2 0 8 2zM206 421q8 -22 8 -42q0 -43 -31.5 -73t-71.5 -32q-47 0 -79 31.5t-32 76.5q0 44 31.5 76.5t76.5 32.5q16 0 40.5 -7t24.5 -17v-2q22 -17 33 -44zM200 356q3 12 3 23q0 56 -46 84q-3 1 -3 3v1l1 1q-23 12 -47 12q-39 0 -68 -28.5t-29 -67.5
q0 -41 28.5 -70t70.5 -29q30 0 56 21t34 50z" />
    <glyph glyph-name="degree" unicode="&#xb0;" horiz-adv-x="272" 
d="M234 421q8 -22 8 -42q0 -43 -31.5 -73t-71.5 -32q-47 0 -79 31.5t-32 76.5q0 44 31.5 76.5t76.5 32.5q16 0 40.5 -7t24.5 -17v-2q22 -17 33 -44zM228 356q3 12 3 23q0 56 -46 84q-3 1 -3 3v1l1 1q-22 12 -47 12q-39 0 -68 -28.5t-29 -67.5q0 -41 28.5 -70t70.5 -29
q30 0 56 21t34 50z" />
    <glyph glyph-name="acute" unicode="&#xb4;" horiz-adv-x="150" 
d="M45 423q-5 0 -5 4q-1 3 0 7t3 4q60 14 85 54q4 4 8 1q4 -4 1 -8q-34 -50 -91 -62h-1z" />
    <glyph glyph-name="Ydieresis" unicode="&#x178;" horiz-adv-x="259" 
d="M270 332q4 -4 0 -7l-24 -24q-15 -99 -59 -188.5t-111.5 -155.5t-156 -92.5t-191.5 1.5q-5 2 -4 6t6 4q98 -26 181 -2.5t148 86t108.5 147t62.5 179.5q-77 -77 -119 -94q-25 -10 -44 -5q-20 6 -28 34q-4 14 -20.5 133.5t-18.5 134.5q0 5 4 5q10 3 10 -3q0 -2 8 -62.5
t17 -126t12 -74.5q6 -24 21 -28q43 -12 153 96q5 6 8 8q9 69 1 164q0 2 3.5 5t5.5 3q5 0 5 -5q8 -82 -1 -154q16 14 16 15q1 2 3 2t4 -2zM45 576q9 6 20 4t18 -10q8 -8 7 -19.5t-9 -19.5q-7 -7 -15 -8q-10 -3 -19.5 2.5t-12.5 15.5q-9 22 11 35zM181 576q9 6 20 4t18 -10
q8 -8 7 -19.5t-9 -19.5q-7 -7 -15 -8q-10 -3 -19.5 2.5t-12.5 15.5q-9 22 11 35z" />
    <glyph glyph-name="hungarumlaut" unicode="&#x2dd;" 
d="M45 423q-5 0 -5 4q-1 3 0 7t3 4q60 14 85 54q4 4 8 1q4 -4 1 -8q-34 -50 -91 -62h-1zM92 408q-5 0 -5 3q-2 2 -2 6.5t2 5.5q56 26 72 70q2 5 7 3t3 -8q-23 -56 -76 -79z" />
    <glyph glyph-name="endash" unicode="&#x2013;" horiz-adv-x="294" 
d="M23 228q-5 0 -5 13q0 5 6 5q135 -16 252 -9q6 0 6 -5q0 -3 -2.5 -8.5t-4.5 -5.5q-87 -4 -128.5 -2t-123.5 12z" />
    <glyph glyph-name="emdash" unicode="&#x2014;" horiz-adv-x="433" 
d="M31 228q-5 0 -5 13q0 5 6 5q74 -9 195.5 -11.5t196.5 2.5q6 0 6 -5q0 -3 -2.5 -8.5t-4.5 -5.5q-79 -5 -198 -2t-194 12z" />
    <glyph glyph-name="quoteleft" unicode="&#x2018;" horiz-adv-x="57" 
d="M40 479h1q6 -2 4 -7l-16 -42l4 -7q2 -3 -4.5 -6.5t-9.5 -2.5q-4 1 -6.5 6t-1.5 8l23 48q2 3 6 3z" />
    <glyph glyph-name="quoteright" unicode="&#x2019;" horiz-adv-x="57" 
d="M16 413h-1q-6 2 -4 7l16 42l-4 7q-2 3 4.5 6.5t9.5 2.5q4 -1 6.5 -6t1.5 -8l-23 -48q-2 -3 -6 -3z" />
    <glyph glyph-name="quotesinglbase" unicode="&#x201a;" horiz-adv-x="62" 
d="M16 115h-1q-6 2 -4 7l16 42l-4 7q-2 3 4.5 6.5t9.5 2.5q4 -1 6.5 -6t1.5 -8l-23 -48q-2 -3 -6 -3z" />
    <glyph glyph-name="quotedblleft" unicode="&#x201c;" horiz-adv-x="89" 
d="M68 479h1q6 -2 4 -7l-16 -42l4 -7q2 -3 -4.5 -6.5t-9.5 -2.5q-4 1 -6.5 6t-1.5 8l23 48q2 3 6 3zM40 479h1q6 -2 4 -7l-16 -42l4 -7q2 -3 -4.5 -6.5t-9.5 -2.5q-4 1 -6.5 6t-1.5 8l23 48q2 3 6 3z" />
    <glyph glyph-name="quotedblright" unicode="&#x201d;" horiz-adv-x="86" 
d="M16 413h-1q-6 2 -4 7l16 42l-4 7q-2 3 4.5 6.5t9.5 2.5q4 -1 6.5 -6t1.5 -8l-23 -48q-2 -3 -6 -3zM44 413h-1q-6 2 -4 7l16 42l-4 7q-2 3 4.5 6.5t9.5 2.5q4 -1 6.5 -6t1.5 -8l-23 -48q-2 -3 -6 -3z" />
    <glyph glyph-name="quotedblbase" unicode="&#x201e;" horiz-adv-x="87" 
d="M16 115h-1q-6 2 -4 7l16 42l-4 7q-2 3 4.5 6.5t9.5 2.5q4 -1 6.5 -6t1.5 -8l-23 -48q-2 -3 -6 -3zM44 115h-1q-6 2 -4 7l16 42l-4 7q-2 3 4.5 6.5t9.5 2.5q4 -1 6.5 -6t1.5 -8l-23 -48q-2 -3 -6 -3z" />
    <glyph glyph-name="Euro" unicode="&#x20ac;" horiz-adv-x="203" 
d="M189 448q0 -8 -5 -8q-4 0 -5 3q-14 27 -51 27q-35 0 -54.5 -28.5t-25.5 -73.5l76 3q4 0 6 -5q0 -6 -6 -6l-77 -4q-5 -30 2 -78l107 11q6 0 6 -5q0 -6 -5 -6l-105 -12q26 -82 86 -82q8 0 21 5.5t18 5.5q6 0 6 -6q0 -8 -17.5 -13.5t-29.5 -5.5q-72 0 -100 97l-30 -2h-1
q-5 0 -5 5q0 4 5 6l29 2q-8 41 -5 76h-20h-2q-4 0 -4 6q0 5 5 5l22 1q7 48 34 82t64 34q43 0 61 -34z" />
    <glyph glyph-name="minus" unicode="&#x2212;" horiz-adv-x="338" 
d="M31 270q-5 0 -5 12q0 5 6 5q120 -14 258 -6q6 0 6 -8q0 -6 -5 -6q-157 -9 -260 3z" />
    <glyph glyph-name="q_j" horiz-adv-x="196" 
d="M204 264q4 -2 2 -7l-6 -15q-6 -14 -19 -45t-25 -62q-2 -132 -14 -195q-13 -69 -42.5 -124t-56.5 -55h-1q-6 0 -9 5q-10 17 14 98q23 73 58 167q19 52 38 98q3 82 0 158q-55 -47 -79 -75q-4 -53 -5 -78q10 -17 15 -27q19 -48 0 -133q-4 -19 -9.5 -38t-9 -28.5t-4.5 -9.5
q0 -4 -4 -4q-1 0 -1 1q-4 0 -4 5q0 4 6 234q-8 14 -11.5 23.5t-1.5 24t14 28.5l1 1q1 15 4 94q0 -1 -1 -1l-1 -2q-15 -32 -27 -33q-13 -2 -21 12q-8 15 0 34.5t24 28.5q15 9 31 6.5t24 -15.5q2 -4 -2 -7q-3 -2 -7 2q-2 5 -4 6q0 -5 -2.5 -42t-3.5 -67q37 42 78 73v7
q0 6 10 6q6 0 6 -4q0 -104 -1 -144q10 24 20.5 49t14.5 36l5 11q2 5 7 3zM49 154q0 26 1 39q-11 -18 -1 -39zM24 281q7 1 17.5 22.5t14.5 36.5v1q-10 0 -19 -6q-13 -8 -20.5 -21.5t-1.5 -24.5q4 -8 9 -8zM64 103q-3 7 -7 14q-1 -43 -2.5 -108.5t-1.5 -77.5q35 115 11 172z
M130 -58q9 48 13 160q-4 -10 -29 -75q-43 -117 -57 -166q-24 -79 -15 -90h1q21 0 48 52.5t39 118.5zM153 328q-11 0 -11 12q0 11 11 11q12 0 12 -11q0 -12 -12 -12z" />
    <glyph glyph-name="y_j" horiz-adv-x="196" 
d="M204 264q4 -2 2 -7l-6 -15q-6 -14 -19 -45t-25 -62q-2 -112 -14 -183q-5 -34 -19.5 -62.5t-39.5 -28.5h-1q-6 0 -9 5q-4 6 9 61.5t28 101.5l33 100q1 45 1 122q-48 -71 -64 -105q2 -104 -5 -191q-8 -81 -19 -141q-11 -54 -29 -63q-1 -1 -3 -1q-4 0 -9 6q-22 37 -23 94
q-2 58 15 127q19 80 60 167q-2 72 -9 124q-19 -45 -39 -48q-10 0 -13 8q-7 15 -7 86q0 6 7 6t7 -5q0 -70 5 -82l2 -1q6 0 16.5 16t18.5 41q1 3 5 3q8 0 8 -1q8 -43 11 -125q16 31 64 102v12.5t-0.5 11t-0.5 8v5.5v2q0 6 10 6q6 0 6 -4q0 -104 -1 -144q10 24 20.5 49t14.5 36
l5 11q2 5 7 3zM61 -43q7 80 7 164q-36 -80 -51 -146q-35 -147 7 -213v-1q8 4 19 58q12 63 18 138zM131 -46q4 20 12 140q-13 -42 -23 -69q-12 -36 -26.5 -93t-11.5 -61h1q15 -3 28 20t20 63zM153 328q-11 0 -11 12q0 11 11 11q12 0 12 -11q0 -12 -12 -12z" />
    <glyph glyph-name="l.1" horiz-adv-x="56" 
d="M1 230q-5 94 13 215q8 55 28 101.5t37 65.5q14 17 26 10q10 -5 11 -29.5t-3 -51.5t-11 -53q-13 -45 -42 -123t-47 -107q0 -15 2 -35q1 -10 2.5 -30t3.5 -40.5t4 -40t3 -32.5l1 -12q1 -3 -1 -6q-3 -3 -5 -1q-3 2 -11 62t-11 107zM100 614q-4 0 -11 -9q-15 -16 -32.5 -62.5
t-26.5 -100.5q-17 -97 -17 -164q18 37 43.5 106.5t35.5 106.5q12 43 14 82q3 37 -6 40v1z" />
    <glyph glyph-name="S.1" horiz-adv-x="214" 
d="M140 54q-14 17 -14 38.5t6 34.5t22 41q-168 225 -153 369q7 46 39.5 83.5t74.5 55.5t90 15t82 -32q88 -71 -90 -298q-7 -9 -10 -13q-3 -5 -7 -1q-2 1 -2.5 3.5t1.5 3.5q22 29 32 42.5t34 48.5t34 58.5t20 53.5t4.5 52.5t-24.5 38.5q-32 26 -76 28t-82.5 -15.5
t-68.5 -50.5t-35 -71q-8 -57 15.5 -126.5t46 -106.5t69.5 -106q9 -14 14 -21q25 36 55 89q1 2 3 1t3 -3q0 -1 1.5 -2t0.5 -2q-4 -7 -27 -47t-28 -47q51 -77 36 -112q-12 -19 -32.5 -17.5t-33.5 15.5zM164 156q-39 -64 -15 -93q10 -11 23.5 -12t21.5 12q12 27 -30 93z" />
    <glyph glyph-name="C.1" horiz-adv-x="336" 
d="M1 158q5 278 169 500q15 20 31.5 33t39 19t42.5 -9q23 -16 26.5 -54.5t-7 -81t-29.5 -93t-34.5 -83t-28.5 -56.5q-2 -5 -7 -2q-4 2 -2 6q11 21 26.5 54t33 80t28 89t8.5 79t-21 51q-38 28 -95 -43q-78 -105 -123 -252t-36 -263q4 -45 22 -71.5t53 -24.5t78 41
q105 94 165 196q2 4 7 2q4 -4 2 -7q-66 -111 -166 -202q-82 -67 -131.5 -38t-50.5 130z" />
    <glyph glyph-name="J.1" horiz-adv-x="509" 
d="M555 687q4 -4 -1 -7q-54 -44 -87 -73q-5 -5 -15 -14.5t-15 -13.5q22 -5 25 -44q12 -186 -24 -370q56 78 74 105q3 4 7 2q4 -4 2 -7q-15 -24 -87 -130q0 -1 -0.5 -3t-0.5 -3q-40 -184 -140 -370q-1 -3 -4 -3h-1q-7 2 -7 5q5 159 137 374q42 196 30 390q-1 4 -2 9.5t-4 14
t-7.5 13t-10.5 2.5q-19 -6 -84 -81.5t-122 -155.5q-52 -72 -121 -183q-1 -1 -8 -1h-3q-4 4 -1 7q172 291 375 468q17 15 38.5 32t33.5 27l12 10q2 1 6 1t5 -1zM292 -216q86 165 122 320q-33 -59 -53 -100t-41 -102t-28 -118z" />
    <glyph glyph-name="M.1" horiz-adv-x="446" 
d="M320 -42l90 564q-19 -21 -43.5 -61.5t-39.5 -70t-40.5 -82.5t-30.5 -62q-48 -95 -73 -133q-9 -15 -23 -23t-26 -2q-4 2 -2 5l75 519q-140 -464 -228 -697q-1 -3 -5 -3h-2q-5 2 -3 7q42 111 131.5 396t118.5 367q1 4 6 3q4 0 4 -5l-84 -583q13 -2 29 21q15 23 72 135
q2 3 32.5 65.5t46 91.5t43 73t48.5 66q4 2 6 1q3 -2 3 -6l-92 -587q-4 -25 -11 -24q-5 1 -2 25z" />
    <glyph glyph-name="W.1" horiz-adv-x="279" 
d="M5 -201h-1q-8 3 -6 6q39 158 59.5 255t39 239.5t15.5 262.5q0 5 9 5q5 0 5 -5q6 -231 -76 -592q12 46 35 142.5t37 153t40 135.5t55 142q6 12 9 11q4 0 4 -5l-24 -456q76 253 123.5 389.5t110.5 264.5q3 5 7 3q4 -4 2 -7q-43 -88 -86 -204.5t-73 -211t-93 -302.5
q0 -4 -5 -4q-5 2 -4 6l27 487q-54 -129 -112.5 -371.5t-92.5 -339.5q-2 -4 -5 -4z" />
    <glyph glyph-name="A.1" 
d="M33 -18q-41 56 -31.5 106t58.5 91l90 256q3 135 25 234q3 16 11.5 26t20.5 8q13 0 18 -15t2 -28q-9 -74 -57 -205l-7 -22v-58v-68.5v-56.5q6 4 12.5 8t10 6.5t5.5 3.5q4 2 6 -3q4 -4 -2 -6q-2 -1 -6 -4t-11.5 -7.5t-14.5 -9.5q0 -123 -8 -197q-6 -61 -43 -81t-79 22z
M13 43q8 -32 28 -55q29 -30 50.5 -24.5t34 27.5t15.5 51q9 80 9 190q-51 -35 -82 -59l-46 -129q-2 -5 -6 -3q-1 0 -3 2zM53 159q-54 -49 -41 -113q0 1 1 1zM150 404l-75 -213q24 18 75 53v160zM204 693q-12 0 -19 -26q-15 -70 -21 -201q43 115 53 195q2 11 -0.5 21.5
t-11.5 10.5h-1z" />
    <glyph glyph-name="I.1" horiz-adv-x="100" 
d="M92 574q2 -5 -2 -7q-6 -4 -20 -13t-21 -13q-1 -3 -1 -10q45 -294 36 -592q0 -5 -5 -5q-8 0 -8 5q9 302 -35 588v4q-24 -17 -28 -20l-1 -1h-2q-3 0 -4 3q-3 3 1 7q58 41 83 55q3 3 7 -1z" />
    <glyph glyph-name="D.1" horiz-adv-x="495" 
d="M505 266q3 -5 -4 -5q-10 -3 -13 -4t-14 -3q-9 -98 -67 -183q-38 -55 -88 -87.5t-103 -36.5q-81 0 -99 49q-29 87 141 191q6 169 -15 337q-1 2 2 4t5 2q4 0 6 -4q20 -166 15 -333q16 8 52 24q61 26 138 45q3 52 -9 100q-20 75 -73.5 128.5t-123.5 67.5q-76 15 -147 -20
t-98 -102q-2 -5 -7 -3t-3 7q30 72 105 109q72 37 151 21q73 -13 131 -70.5t78 -135.5q13 -46 10 -100l24 6q4 1 6 -4zM395 77q56 80 65 174q-108 -25 -190 -70q-3 -93 -13 -174q0 -5 -5 -5h-1q-7 4 -7 6q10 77 13 167q-27 -15 -58.5 -40.5t-57.5 -65t-14 -70.5
q17 -46 89 -42q101 8 179 120z" />
    <glyph glyph-name="B.1" horiz-adv-x="283" 
d="M46 -80q-7 0 -7 5q-3 34 -5 103q-5 -3 -29 -15q-3 -2 -6 1q-1 1 -1 6q13 28 34 55q-2 116 6 232q-2 -2 -2 -4q-4 -4 -7 -1q-4 2 -2 6q7 15 13 24q13 177 54 372q0 6 5 4q3 0 5 -4q18 -204 -32 -332q44 38 96 41.5t90 -38.5q18 -24 21 -52t-6.5 -55.5t-23.5 -50.5t-33 -45
q-74 -84 -171 -139q2 -55 6 -107q0 -6 -5 -6zM33 59q-7 -10 -19 -30q16 8 19 10v20zM44 71q1 -9 1 -27q84 49 161 135q15 16 27.5 37t23 46.5t9 53t-16.5 49.5q-24 34 -63 37.5t-74 -15.5t-55 -49l-6 -12q-9 -113 -7 -239q47 47 87 65q5 3 7 -2q2 -3 -2 -7q-54 -25 -92 -72z
M97 668q-30 -147 -44 -316q57 122 44 316z" />
    <glyph glyph-name="E.1" horiz-adv-x="299" 
d="M13 116q-38 94 -12.5 183.5t87 158.5t134.5 97q-27 7 -39 25q-14 22 -8 50t28 43q22 14 50 8.5t43 -27.5q2 -3 -2 -7q-3 -3 -7 1q-12 19 -35.5 23.5t-41.5 -8.5q-19 -12 -23.5 -35.5t7.5 -41.5q18 -24 47 -24l33 9q3 2 5 -3q2 -3 -1 -6q-20 -13 -35 -13
q-75 -27 -139.5 -98.5t-88.5 -158.5t14 -172q16 -32 41 -41t52 3.5t54.5 34.5t53 51.5t43.5 54.5t29 44q1 4 7 2q4 -2 2 -7q-26 -45 -62 -88.5t-79.5 -79.5t-86.5 -33.5t-70 55.5z" />
    <glyph glyph-name="K.1" horiz-adv-x="182" 
d="M325 564q2 -5 -1 -6q-157 -148 -279 -272q1 -1 0 -1q4 -33 63.5 -96.5t106.5 -71.5q5 0 5 -5l-5 -9q-52 9 -103.5 61.5t-73.5 97.5q-4 -129 -20 -284q-1 -4 -5 -4l-1 -1q-9 3 -8 5q39 363 9 728q0 6 9 6q6 0 4 -5q18 -201 13 -413q131 134 279 271q3 3 7 -1z" />
    <glyph glyph-name="X.1" horiz-adv-x="364" 
d="M401 660q4 -1 2 -7q-78 -127 -166 -293q1 -1 1 -3q22 -60 48 -83q17 -16 40 -19t42 10q1 1 3.5 0.5t3.5 -1.5q4 -5 -1 -7q-20 -16 -47 -12.5t-49 21.5q-28 23 -49 81q-121 -231 -215 -462q-2 -3 -4 -3h-2q-7 2 -4 12q85 209 221 465q-61 168 -62 327l-155 -222
q-3 -3 -6 0q-4 2 -1 7l163 236q2 3 7 1q2 -1 4 -4.5t1 -4.5q2 -170 57 -324q79 148 161 284q4 4 7 1z" />
    <glyph glyph-name="L.1" horiz-adv-x="181" 
d="M386 134q2 -6 -4 -6q-142 -27 -377 -36q-5 0 -5 4t5 6q44 2 66 4q128 276 108 578l-8 -18q-2 -4 -6 -2q-5 2 -3 6l15 38q1 3 6 3q9 0 9 -5q27 -305 -105 -599q200 18 293 36q6 0 6 -9z" />
    <glyph glyph-name="T.1" horiz-adv-x="285" 
d="M661 689q0 -9 -4 -11q-12 -1 -65 -8t-71.5 -9.5t-63.5 -9t-71 -11.5t-62.5 -12.5t-68.5 -16.5l22 -649q1 -2 -3 -4t-6 -2h-1q-3 0 -5 5l-19 648q-44 -11 -71 -19.5t-65 -29t-59 -46.5q-23 -28 -30.5 -61t0.5 -73.5t17 -68t27 -71.5q1 -1 -1.5 -3t-5.5 -3q0 -1 -2 -1
q-4 0 -4 3q-23 53 -35 94t-9 96.5t35 94.5q7 9 16 17.5t20 15.5t19.5 12.5t23.5 12t23 10t25.5 9t23.5 7.5t26.5 8t24.5 7l-1 22q3 5 6 5t5.5 -2t1.5 -4l1 -19q143 38 400 71q5 0 6 -4z" />
    <glyph glyph-name="O.1" horiz-adv-x="331" 
d="M31 -18q-27 83 -30 184t16 197t66 179t115 127q11 4 14 0q0 -12 -1 -13q-70 -45 -116.5 -130.5t-63 -181t-12 -191t28.5 -169.5q63 -181 134 -119q56 49 93 213q9 39 14 77q-98 -138 -156 -44q-43 69 -46 212q-2 51 4 88q10 62 41 116t70 60q26 4 45.5 -18.5t28.5 -57.5
q40 -161 25 -322q20 44 32 79q1 4 7 2q3 -3 1 -7q-3 -6 -10.5 -25t-15 -37t-15.5 -31q-13 -166 -72 -269q-54 -94 -111 -60q-47 27 -86 141zM108 405q-13 -98 10 -203q26 -116 79 -112q41 3 93 84q18 170 -24 335q-8 30 -24 50.5t-38 17.5q-38 -10 -64 -64.5t-32 -107.5z
" />
    <glyph glyph-name="ampersand.1" horiz-adv-x="218" 
d="M26 212q-16 57 23 109q18 25 51 47q-16 11 -16 28.5t16 25.5q20 13 37 -4q3 -3 0 -8q-3 -4 -7 0q-10 10 -24 1q-11 -7 -8.5 -19.5t16.5 -14.5q13 8 24 13q3 2 6 -1t1 -6q-8 -21 -30 -21q-32 -20 -53 -47q-37 -50 -21 -99q8 -26 28.5 -42t44.5 -14q34 5 52.5 39t14.5 69
q-1 22 -11 36q-6 -17 -20 -26.5t-28 -1.5t-13 24.5t13 25.5q19 12 41 -1q0 1 27 154q2 5 7 5q6 -2 4 -7q-28 -159 -28 -160q16 -16 19 -48q5 -41 -18.5 -79.5t-61.5 -42.5q-32 -3 -54.5 16.5t-31.5 48.5zM128 316q-8 -5 -8.5 -15.5t7.5 -14.5q21 -13 34 27q-20 13 -33 3z
" />
    <glyph glyph-name="t.1" horiz-adv-x="41" 
d="M313 448q5 0 5 -5t-5 -5q-23 -2 -152 -14t-150 -15q0 -32 0.5 -75.5t0 -88t-0.5 -90.5t-0.5 -86t-1 -71.5t-0.5 -51.5v-19q0 -4 -4 -4q-7 0 -7 6q0 322 -1 478l-75 -7q-5 0 -5 7q0 5 4 5q14 1 40.5 3.5t35.5 3.5v41q0 5 7 5q3 2 5 -4q1 -6 1 -19v-21q71 8 303 27z" />
    </font>
</defs>
</svg>
